<svg class="ArrowL"
     viewBox="0 0 757.76 2089.45">
    <defs>
    </defs>
    <title>ArrL</title>
    <g id="Ebene_2"
       data-name="Ebene 2">
        <g id="Ebene_1-2"
           data-name="Ebene 1">
            <path class="cls-1-1"
                  d="M729.55,2074.06c-39.93-4.21-112.32-21-154.11-85.81-29.45-45.68-39.17-108.19-22.06-159.1,13.59-40.45,35.69-48.44,48.08-99.87,3.66-15.19,12.92-53.6,1.16-91.74-15.58-50.55-59.88-74-103-102.58-59.83-39.72-137.85-103-176.21-156.39-66.62-92.69-88.91-260.64,1.22-365.47,46.35-53.92,125.92-93,207.81-80.46,126,19.33,222,155.5,200.91,279.87-28.28,166.93-248.32,199.58-272.91,203.22-24.82,3.69-122.72,13.7-220.64-43.39C206,1352.59,132,1301.42,68.43,1144-40.37,874.68,8.74,610.46,31.27,514.57,86.67,278.78,204.56,110.91,286.72,14.43" />
            <path class="cls-2-2"
                     d="M757.76 2075.35 718.89 2056.97 727.45 2073.72 717.15 2089.45 757.76 2075.35z" />
            <path class="cls-2-2"
                  d="M297.71,24.81a15,15,0,1,0-21.21,1.66A15,15,0,0,0,297.71,24.81Z" />
        </g>
    </g>
</svg>