<svg xmlns="http://www.w3.org/2000/svg"
     viewBox="0 0 420.8 1188.16">
    <defs>
        <style>.cls-1,.cls-2{fill:none;stroke:#f90;stroke-miterlimit:10;}.cls-2{stroke-dasharray:11.97 11.97;}.cls-3{fill:#f90;}</style>
    </defs>
    <title>arrowMidLeft</title>
    <g id="Ebene_2"
       data-name="Ebene 2">
        <g id="Ebene_1-2"
           data-name="Ebene 1">
            <path class="cls-1"
                  d="M99.69,14.32c-.76,1.86-1.5,3.72-2.24,5.57" />
            <path class="cls-2"
                  d="M93.15,31.06c-33.38,89.19-37.8,164.69-36.91,211.1,1.4,72.68,3.86,201.2,96,278,13.91,11.58,88.91,74.09,170,47,44.91-15,100.11-60.3,98-124-2.06-62.36-57.81-105.28-106-117-81.39-19.82-146.08,48.17-156,59-60.87,66.41-57.6,160.18-57,195,2.08,120.12-14.49,297.5-82.23,572.95" />
            <path class="cls-1"
                  d="M17.57,1158.92l-1.44,5.82" />
            <path class="cls-3"
                  d="M85.58,9.27A15,15,0,1,1,93.7,28.93,15,15,0,0,1,85.58,9.27Z" />
            <path class="cls-3"
                  d="M10.24,1188.16c-1.36-12-4.95-27.45-10.24-37.77l16.81,11.26,20.12-2.11C27.43,1166.19,17.06,1178.14,10.24,1188.16Z" />
        </g>
    </g>
</svg>