<svg xmlns="http://www.w3.org/2000/svg" viewBox="0 0 372.68 375.77"><defs><style>.cls-1{fill:#fff;}</style></defs><title>LogoIcon_1</title><g id="Ebene_2" data-name="Ebene 2"><g id="Ebene_1-2" data-name="Ebene 1"><path class="cls-1" d="M347.05,51a24.64,24.64,0,0,0,18.06-7.57,24.74,24.74,0,0,0,7.57-18.06A24.26,24.26,0,0,0,365.11,7.5a25.49,25.49,0,0,0-36.05-.06L329,7.5a24.25,24.25,0,0,0-7.58,17.84A24.69,24.69,0,0,0,329,43.4,24.63,24.63,0,0,0,347.05,51Z"/><path class="cls-1" d="M326.07,216.34v1.44h0a115.1,115.1,0,0,1-34.83,82.86c-22.28,21.92-51.36,33.69-81.81,33.09C148,332.57,98,281.61,97.16,219.72a74.69,74.69,0,0,0,17.68-7.19,71.55,71.55,0,0,0,27.38-27.31,77.08,77.08,0,0,0,10-38.88,77.9,77.9,0,0,0-5.9-30.22,74.2,74.2,0,0,0-16-24.33A73.51,73.51,0,0,0,106.1,75.85,77.2,77.2,0,0,0,76.17,70Q43.7,70,21.85,91.87T0,146.34Q0,179,21.85,200.66a72.15,72.15,0,0,0,33.23,19.11c.88,84.65,69.33,154.45,153.56,156h3c40.8,0,79.47-16,109.16-45.2a156.82,156.82,0,0,0,47.41-112.7h0v-147h-42.1Zm-284.85-70q0-15.6,10-25.85t25-10.27q14.85,0,24.83,10.27t10,25.85q0,15.15-10,25.48a33.19,33.19,0,0,1-24.76,10.34q-15,0-25-10.34T41.22,146.34Z"/></g></g></svg>