<svg xmlns="http://www.w3.org/2000/svg" viewBox="0 0 450.05 450.06"><defs><style>.cls-1{fill:#515151;}</style></defs><title>patternDark</title><g id="Ebene_2" data-name="Ebene 2"><g id="Ebene_1-2" data-name="Ebene 1"><g id="layer"><path class="cls-1" d="M185.15,372c-5.07-7.35-18.42-10.69-28.67-10.69a41.76,41.76,0,0,0-8.71.85c-9.64,2.08-17.87,3.95-25.12,5.59-19.44,4.42-31.17,7.08-40.92,7.08-8.12,0-15.08-1.81-24.82-6.47a231.2,231.2,0,0,1-23.63-13.19c-9.41-5.83-15.62-9.68-24.13-9.68A35.78,35.78,0,0,0,0,346.75v.72a35.8,35.8,0,0,1,9.14-1.33c8.31,0,14.45,3.81,23.76,9.57A233.74,233.74,0,0,0,56.61,369c9.84,4.7,16.88,6.53,25.12,6.53,9.83,0,21.59-2.67,41.07-7.09,7.26-1.65,15.48-3.52,25.12-5.59a41,41,0,0,1,8.56-.84c10.07,0,23.16,3.25,28.1,10.38a11,11,0,0,1,1,10.67c-2.94,7.8-16.69,14.68-28.83,20.76-7.33,3.67-14.26,7.14-17.82,10.36-10.41,9.42-7.91,22.17-3.69,35.92H136c-4.2-13.61-6.73-26.22,3.42-35.4,3.49-3.15,10.38-6.6,17.67-10.25,12.24-6.14,26.13-13.09,29.17-21.14A11.59,11.59,0,0,0,185.15,372Z"/><path class="cls-1" d="M3.19,291.91c1.42-30.84,21.08-53.33,36.88-71.4l1.12-1.28c1.83-1.93,6.06-7.09,5.73-13.32-.2-3.8-2.08-7.23-5.58-10.21-2.11-1.78-4-3.45-5.9-5a273.69,273.69,0,0,0-24.65-19.5c-3.66-2.54-7.26-5-10.78-7.2v.35q5.19,3.35,10.61,7.09a275.09,275.09,0,0,1,24.63,19.49c1.85,1.59,3.79,3.26,5.89,5,3.44,2.92,5.28,6.29,5.48,10C47,212,42.78,217.12,41,219l-1.13,1.29C24,238.42,4.31,261,2.89,291.9c-.16,3.29-1.44,5.31-2.88,6v.36C1.57,297.61,3,295.57,3.19,291.91Z"/><path class="cls-1" d="M178.34,418.78a6.86,6.86,0,0,0-5.07-2c-6.29,0-14.15,6.21-16.78,9.05-9.66,10.45-10.77,16.3-8.84,24.17h.52c-1.92-7.77-.84-13.53,8.69-23.83,2.58-2.79,10.29-8.89,16.41-8.89a6.43,6.43,0,0,1,4.72,1.84c2.09,2.09,3.13,6,3.1,11.55A85.28,85.28,0,0,1,178.42,450h.52a85.24,85.24,0,0,0,2.65-19.33C181.62,425,180.53,421,178.34,418.78Z"/><path class="cls-1" d="M10.18,292.23c1.31-28.4,20.08-49.86,35.16-67.11l1.13-1.29a114.54,114.54,0,0,0,7.62-9.54c2.35-3.36,6.72-9.61-3.6-19.56A286.74,286.74,0,0,0,14.78,165.4Q7.09,160.07,0,155.76v.35q7,4.29,14.6,9.54a286,286,0,0,1,35.67,29.29c10.13,9.78,5.86,15.89,3.57,19.18a117.94,117.94,0,0,1-7.61,9.52l-1.13,1.29C30,242.21,11.19,263.72,9.88,292.22c-.61,13.22-3,20.91-7.39,24.21A5.06,5.06,0,0,1,0,317.52v.31a5.42,5.42,0,0,0,2.66-1.16C7.18,313.32,9.56,305.55,10.18,292.23Z"/><path class="cls-1" d="M132.24,89.1c-2-7.68-17.63-9.73-35.78-12.09-4.49-.58-9.13-1.19-13.63-1.9C62.92,72,44.7,62,27.08,52.31,18.25,47.45,9.24,42.51,0,38.44v.77c9.1,4,18,8.91,26.73,13.69,17.67,9.7,36,19.72,56,22.88,4.51.71,9.16,1.32,13.65,1.91,17.15,2.24,33.36,4.36,35.19,11.58,1.42,5.62-5.9,14.15-22.38,26.07C86,132.06,66.64,139.85,48.1,139.85A67.63,67.63,0,0,1,17,132.08,118.82,118.82,0,0,1,0,121v.88a117.29,117.29,0,0,0,16.73,10.8,68.28,68.28,0,0,0,31.36,7.85h0c18.69,0,38.23-7.83,61.48-24.65C126.56,103.63,133.76,95.11,132.24,89.1Z"/><path class="cls-1" d="M2.6,246.94a99,99,0,0,1,9.57-13.2c4.87-6,9.91-12.2,12.63-19.82,4.78-13.43-4.6-19.64-14.52-26.21l-2.76-1.84c-1.64-1.11-3.18-2.15-4.7-3.21-.75-.52-1.67-1.18-2.81-2V181q1.58,1.16,2.64,1.89c1.52,1,3.06,2.1,4.71,3.21l2.75,1.9c9.83,6.5,19.11,12.65,14.4,25.86-2.69,7.57-7.72,13.76-12.57,19.73a99,99,0,0,0-9.6,13.24A44.4,44.4,0,0,0,0,252v.81l.24-.61A46.76,46.76,0,0,1,2.6,246.94Z"/><path class="cls-1" d="M316.39,420.39c-.39-3.38-2.51-6.32-6.33-8.72-6.89-4.34-21.31-6.28-32.55-6.28-2.19,0-4.2.07-6,.22a183.49,183.49,0,0,0-34.91,6.61c-1.79.51-3.58,1.06-5.3,1.63-20.89,6.93-33,17.91-38.77,36.16h.53c5.78-18,17.75-28.83,38.4-35.69,1.71-.56,3.49-1.11,5.27-1.62a182.54,182.54,0,0,1,34.82-6.59c1.76-.15,3.75-.22,5.93-.22,11.17,0,25.48,1.92,32.29,6.2,3.67,2.32,5.73,5.13,6.09,8.36.92,8.1-8.53,17.61-16.13,25.26-1.53,1.54-3,3-4.21,4.3h.69c1.17-1.23,2.47-2.54,3.87-3.95C307.79,438.34,317.34,428.73,316.39,420.39Z"/><path class="cls-1" d="M125.39,395a9.39,9.39,0,0,1,5.11-1.16,23.17,23.17,0,0,1,2.33.08c.81.08,1.64.07,2.47.07a12.08,12.08,0,0,0,6.49-1.54c5.69-3.52,7.57-7.61,6.91-9.91-.43-1.53-1.91-2.4-4-2.4a17.16,17.16,0,0,0-7,2,20,20,0,0,0-4.74,3.74c-1.81,1.73-3.67,3.52-5.8,4.1a7.48,7.48,0,0,1-2,.27,13.93,13.93,0,0,1-3.84-.71,14,14,0,0,0-4-.74,7.45,7.45,0,0,0-1.49.14c-2.54.47-4.27,2.08-6,3.64a14.25,14.25,0,0,1-4.75,3.3A28,28,0,0,1,96.12,397a136.88,136.88,0,0,1-15-1.13l-3.53-.39c-9.26-.92-18.88-3.82-29.42-8.86a251.19,251.19,0,0,1-25.56-14.25A20.14,20.14,0,0,0,12,369a19.38,19.38,0,0,0-12,4.37v.37a19.23,19.23,0,0,1,12-4.44,19.92,19.92,0,0,1,10.5,3.23,249.45,249.45,0,0,0,25.56,14.27c10.57,5.05,20.23,8,29.52,8.89l3.52.39a142,142,0,0,0,15,1.13,28.24,28.24,0,0,0,9-1.13,14.19,14.19,0,0,0,4.85-3.36c1.72-1.6,3.35-3.11,5.8-3.57a7.71,7.71,0,0,1,1.44-.13,14.58,14.58,0,0,1,3.93.72,14.21,14.21,0,0,0,3.93.73,7.6,7.6,0,0,0,2.07-.28c2.21-.61,4.1-2.42,5.92-4.17a19.85,19.85,0,0,1,4.67-3.69,16.9,16.9,0,0,1,6.88-1.94c2,0,3.36.77,3.76,2.18.63,2.2-1.22,6.14-6.78,9.57a11.68,11.68,0,0,1-6.33,1.5c-.82,0-1.65,0-2.46-.07s-1.58-.08-2.34-.08a9.79,9.79,0,0,0-5.27,1.2c-1.85,1.17-3.26,4.1-4.62,6.95a30.52,30.52,0,0,1-2.42,4.46c-6.84,9.32-7.26,19.36-5.78,31.55A99.83,99.83,0,0,0,114.79,450h.32a96.63,96.63,0,0,1-2.4-12.38c-1.47-12.13-1.06-22.1,5.73-31.34a30.7,30.7,0,0,0,2.45-4.51C122.23,399,123.61,396.07,125.39,395Z"/><path class="cls-1" d="M156.75,60.94c-1.72,0-4.15,1.09-5.93,6.32-2,5.88,1.86,7.25,6,8.69.72.26,1.47.52,2.18.81a11.55,11.55,0,0,0,4,1,2.74,2.74,0,0,0,2.52-1.19c1.53-2.42-.92-7.79-2.05-10C161.64,63,159.13,60.94,156.75,60.94Zm8.34,15.35c-.8,1.27-2.82,1.26-6,0-.73-.29-1.48-.55-2.2-.81-4-1.42-7.5-2.65-5.65-8.06,1.34-3.91,3.23-6,5.46-6s4.53,2,6.26,5.35C165.28,71.21,166,74.76,165.09,76.29Z"/><path class="cls-1" d="M27,224.93c.44-.54.9-1.07,1.35-1.61,6.44-7.57,13.1-15.4,5.53-24.77-5.85-7.24-14.68-13.21-22.47-18.48C9.83,179,8.31,178,6.81,176.91c-1-.7-2.38-1.7-4-2.85L0,172v.37l2.66,1.94c1.59,1.16,3,2.15,4,2.85,1.51,1.05,3,2.08,4.65,3.17,7.77,5.26,16.59,11.22,22.41,18.42,7.41,9.17.83,16.91-5.52,24.39-.46.53-.92,1.07-1.36,1.6-5.59,6.66-12.73,15.59-18.38,25.52A105.86,105.86,0,0,0,0,269.12v1a104.93,104.93,0,0,1,8.68-19.71C14.32,240.49,21.45,231.58,27,224.93Z"/><path class="cls-1" d="M162.64,448.34a12.56,12.56,0,0,0-1.91-3.84c-1.11-1.67-2.06-3.11-1.68-5.85.52-3.73,5-12.95,9.92-12.95h.14c2.44.09,4,.71,4.61,1.83,1.12,2.05-.91,5.53-2.54,8.32a14.36,14.36,0,0,0-1.79,3.67,4.24,4.24,0,0,0,1.21,3.59,3.77,3.77,0,0,1,1.09,2.47,5.76,5.76,0,0,1-2,4.27l-.14.15H170a5.9,5.9,0,0,0,2.06-4.41,4,4,0,0,0-1.16-2.67,4,4,0,0,1-1.14-3.36,14.37,14.37,0,0,1,1.75-3.56c1.67-2.86,3.75-6.41,2.54-8.62-.68-1.23-2.27-1.88-4.86-2H169c-5,0-9.69,9.4-10.22,13.21-.39,2.85.64,4.41,1.73,6.06a12.5,12.5,0,0,1,1.87,3.74,8.68,8.68,0,0,1,.3,1.6h.3A8.51,8.51,0,0,0,162.64,448.34Z"/><path class="cls-1" d="M21.34,123.71c7.6,3.9,14.06,5.71,20.32,5.71,6.56,0,12.39-2,19.14-4.25,3.83-1.29,8.17-2.76,13.1-4a25,25,0,0,1,6.09-.7c1,0,1.87,0,2.75.08s1.63.06,2.42.06c4,0,7.27-1,10.8-5.73A27.09,27.09,0,0,0,100,107c1.18-3.28,2.11-5.87,7.29-9.58A24.57,24.57,0,0,1,112.4,95c3-1.17,5.52-2.18,5.63-3.88.08-1.38-1.53-2.93-5.07-4.85-4.24-2.31-10.3-2.62-15.67-2.62-2.39,0-4.9.07-7.33.15S85,84,82.57,84a46.68,46.68,0,0,1-12.24-1.24C52.93,78,36.61,69,22.22,61.14,14.66,57,7.33,53,0,49.53v.56c7.24,3.42,14.49,7.39,22,11.49C36.43,69.49,52.77,78.45,70.23,83.2A48.08,48.08,0,0,0,82.6,84.42c2.43,0,5-.07,7.4-.14s4.94-.15,7.32-.15c5.31,0,11.28.3,15.43,2.55,3.26,1.78,4.88,3.25,4.81,4.39-.09,1.39-2.63,2.38-5.32,3.44A25.38,25.38,0,0,0,107,97c-5.31,3.79-6.31,6.58-7.47,9.81a27,27,0,0,1-4,7.78c-3.41,4.6-6.51,5.52-10.4,5.52-.78,0-1.57,0-2.4-.06S81,120,80,120a25.07,25.07,0,0,0-6.22.72c-4.94,1.24-9.29,2.71-13.13,4C54,127,48.16,129,41.66,129c-6.18,0-12.56-1.8-20.09-5.65C14.69,119.74,8.5,115,2.51,110.51L0,108.62v.63l2.2,1.66C8.21,115.46,14.42,120.17,21.34,123.71Z"/><path class="cls-1" d="M264.69,436.09a5.78,5.78,0,0,0-2.22-.32c-5.8,0-18.09,3.46-18.22,3.5-1.37.39-2.74.81-4.07,1.25-6.8,2.26-11.83,5.28-15.49,9.49h.39c3.62-4.07,8.56-7,15.2-9.21,1.32-.43,2.68-.85,4.06-1.24.12,0,12.37-3.49,18.13-3.49a5.57,5.57,0,0,1,2.1.29c2.23,1,1.41,3.49-.38,9-.43,1.33-.93,2.89-1.44,4.62h.31c.51-1.69,1-3.22,1.42-4.52C266.27,439.93,267.17,437.15,264.69,436.09Z"/><path class="cls-1" d="M251.12,445.09a18.81,18.81,0,0,0-5,.82c-1.28.36-2.55.75-3.77,1.16a36.69,36.69,0,0,0-6.74,2.94h1a38.66,38.66,0,0,1,5.86-2.47c1.21-.4,2.48-.79,3.75-1.15a18.5,18.5,0,0,1,4.85-.8c2.5,0,4,.91,4.49,2.71a6.16,6.16,0,0,1,.15,1.71h.5a6.31,6.31,0,0,0-.16-1.84C255.72,446.77,254.54,445.09,251.12,445.09Z"/><path class="cls-1" d="M282.53,428.56c-.87-1.75-3.87-2.37-9.24-1.92a162.6,162.6,0,0,0-30.92,5.89c-1.5.42-3,.87-4.39,1.35-10.17,3.37-17.27,8.55-21.88,16.13h.35c4.59-7.43,11.6-12.52,21.62-15.85,1.42-.47,2.89-.92,4.38-1.34a161.2,161.2,0,0,1,30.86-5.88c1.1-.1,2.11-.14,3-.14,3.36,0,5.31.62,5.95,1.9,1.11,2.24-2,6.41-5.08,10.43-.53.72-1.07,1.43-1.6,2.14a91.3,91.3,0,0,0-5.67,8.74h.34a94.31,94.31,0,0,1,5.57-8.56c.53-.71,1.07-1.42,1.6-2.14C280.67,435,283.73,431,282.53,428.56Z"/><path class="cls-1" d="M292.63,433.71c4.61-4.34,6.46-7.76,5.5-10.19-1.15-2.89-6.23-4.35-15.12-4.35-3,0-6.33.16-10.3.49a169.89,169.89,0,0,0-32.24,6.13c-1.58.45-3.16.93-4.7,1.44C222.44,431.66,213.43,439,208.13,450h.34c5.28-10.83,14.2-18.11,27.4-22.49,1.53-.51,3.1-1,4.68-1.44A169.16,169.16,0,0,1,272.73,420c4-.33,7.33-.49,10.28-.49,8.75,0,13.74,1.4,14.84,4.16.91,2.3-.92,5.62-5.43,9.86-.91.85-1.78,1.68-2.52,2.42a90.59,90.59,0,0,0-8.66,9.5c-1.11,1.5-2.15,3-3.17,4.6h.36c1-1.5,2-3,3.05-4.42a90.09,90.09,0,0,1,8.64-9.47C290.85,435.38,291.72,434.56,292.63,433.71Z"/><path class="cls-1" d="M26,114.72a47.58,47.58,0,0,0,22.15,5.63c4.21,0,13.29-1.71,21.22-4.59,6.94-2.52,15.22-6.7,15.23-12.32,0-6.62-12.76-10.3-20.4-12.5-1.66-.48-3.1-.89-4-1.24A298.83,298.83,0,0,1,17.36,70C11.46,66.76,5.69,63.6,0,60.76v.34c5.63,2.82,11.35,6,17.21,9.16A300.24,300.24,0,0,0,60,90c1,.36,2.41.77,4.08,1.25,7.56,2.17,20.21,5.81,20.19,12.21,0,9.72-27.44,16.61-36.17,16.61a47.55,47.55,0,0,1-22-5.59c-6.11-3.13-11.94-7.56-17.59-11.84C5.79,100.58,3,98.45,0,96.38v.37c2.87,2,5.62,4.11,8.3,6.14C14,107.15,19.81,111.58,26,114.72Z"/><path class="cls-1" d="M29.14,108.49a40.8,40.8,0,0,0,19,4.86c5.54,0,12.79-1.64,15.57-5.25a6,6,0,0,0,1-5.48c-1.26-4.85-11.42-8.27-18.83-10.78-2.4-.81-4.47-1.51-5.74-2.1-8.57-4-17-8.62-25.25-13.12l-.91-.5c-4.76-2.6-9.4-5.11-14-7.5V69c4.52,2.34,9.11,4.86,13.8,7.43l.92.5C22.93,81.38,31.42,86,40,90c1.29.59,3.37,1.29,5.77,2.11C52.72,94.46,63.2,98,64.42,102.69a5.71,5.71,0,0,1-1,5.21c-2.71,3.54-9.85,5.11-15.34,5.11a40.63,40.63,0,0,1-18.81-4.82c-5.56-2.81-11.15-7-16.55-11.18C8.81,94.08,4.61,90.9,0,87.9v.36c4.53,3,8.67,6.1,12.53,9C18,101.39,23.55,105.63,29.14,108.49Z"/><path class="cls-1" d="M177.49,6c.5-2,1-4,1.45-6h-.52C178,2,177.49,3.9,177,5.88c-.92,3.71-1.87,7.54-2.64,11.46-2.56,13.05-4.77,30.15,1,46.76,2.32,6.75,8.1,12.26,13.2,17.12,4.55,4.33,8.47,8.07,8.11,11.21-.16,1.45-1.21,2.73-3.22,3.93a9.79,9.79,0,0,1-4.71.83c-7.68,0-21.22-3.39-31.24-6.75C146.55,86.79,133.13,81,131,74c-.67-2.22-.12-4.46,1.62-6.67a103.41,103.41,0,0,1,6.93-7.72c4.55-4.73,8.85-9.2,11.69-15.83a41.44,41.44,0,0,0,1.47-29.33c-.75-2.42-1.5-4.65-2.17-6.62-1-2.91-1.83-5.45-2.42-7.81h-.52c.59,2.41,1.47,5,2.47,8,.66,2,1.41,4.19,2.16,6.61a40.92,40.92,0,0,1-1.45,29c-2.8,6.55-7.07,11-11.59,15.69-2.32,2.41-4.72,4.91-7,7.75-1.84,2.34-2.42,4.74-1.7,7.13,2.14,7.18,15.71,13.09,26.72,16.78,10.06,3.37,23.66,6.77,31.4,6.77a10.11,10.11,0,0,0,5-.9c2.16-1.28,3.29-2.69,3.47-4.3.38-3.39-3.62-7.21-8.26-11.63C183.77,76.11,178,70.64,175.75,64c-5.67-16.5-3.48-33.52-.93-46.51C175.62,13.53,176.57,9.7,177.49,6Z"/><path class="cls-1" d="M94.64,239.89c-.5.82-1,1.61-1.38,2.18-5.06,7.13-11,13.45-17.78,20.39-.91.93-1.84,1.88-2.79,2.83-5.56,5.62-11.32,11.43-14.76,18.3-1.33,2.67-1.74,4.75-1.19,6A2,2,0,0,0,58,290.74a3.48,3.48,0,0,0,.85.11,9.94,9.94,0,0,0,4.73-1.72,109.65,109.65,0,0,0,10.61-7.68C77,279.26,79.91,277,82.87,275c12-7.93,19.89-13.17,23.58-28,.77-3.07,1.22-10.06-1.15-13.09a3.66,3.66,0,0,0-3.21-1.48C99,232.65,96.49,236.83,94.64,239.89Zm7.68-7.1a3.33,3.33,0,0,1,2.74,1.36c2.31,3,1.86,9.82,1.1,12.83-3.67,14.68-11.54,19.9-23.45,27.79-3,2-5.86,4.25-8.65,6.44a107.52,107.52,0,0,1-10.59,7.66c-2.24,1.36-4.15,1.93-5.34,1.58a1.66,1.66,0,0,1-1.11-1c-.51-1.16-.09-3.21,1.18-5.75,3.42-6.83,9.16-12.62,14.71-18.23l2.78-2.83c6.75-7,12.75-13.28,17.82-20.42.41-.59.89-1.38,1.39-2.21,1.81-3,4.28-7.1,7.2-7.25Z"/><path class="cls-1" d="M32.28,102.35a32.22,32.22,0,0,0,11.66,2.85,6.09,6.09,0,0,0,3.29-.72c1.59-1,2.29-2,2.14-3-.32-2.1-4.91-3.37-8.59-4.4A28.13,28.13,0,0,1,37.21,96c-8.77-4.07-17.36-8.78-25.65-13.33l-.92-.5C7,80.19,3.5,78.25,0,76.41V77c3.41,1.81,6.87,3.71,10.39,5.64l.92.5c8.3,4.51,16.89,9.23,25.69,13.31a27.59,27.59,0,0,0,3.65,1.15c3.35.94,8,2.21,8.23,4,.11.73-.54,1.56-1.92,2.45a5.58,5.58,0,0,1-3,.64,32.24,32.24,0,0,1-11.46-2.79c-5-2.57-10.33-6.61-15.5-10.52A184.45,184.45,0,0,0,0,79.54v.59A185.58,185.58,0,0,1,16.72,91.79C21.89,95.71,27.24,99.77,32.28,102.35Z"/><path class="cls-1" d="M17.27,292.56c1.2-25.92,19.06-46.35,33.41-62.76l1.13-1.3c17.07-19.53,16.38-26.36,8.37-34.26a309.25,309.25,0,0,0-41.35-34.67c-6.4-4.43-12.72-8.49-18.82-12.09v.58c6,3.56,12.24,7.55,18.53,11.92A309.74,309.74,0,0,1,59.83,194.6c7.78,7.67,8.41,14.34-8.39,33.58l-1.13,1.29c-14.41,16.47-32.34,37-33.54,63.07C15.64,317,6.42,324.22,0,326.24v.52C6.57,324.77,16.12,317.54,17.27,292.56Z"/><path class="cls-1" d="M307.07,419.79c-2.94-6.26-14.82-7.58-24.26-7.58-3.32,0-6.91.16-10.68.47A176.56,176.56,0,0,0,238.56,419c-1.69.48-3.37,1-5,1.54-10.4,3.45-18.4,8.44-24.46,15.26a48.34,48.34,0,0,0-8.65,14.2h.32c5.78-14.28,16.45-23.68,32.89-29.14,1.62-.53,3.3-1.05,5-1.53A175.75,175.75,0,0,1,272.15,413c3.76-.31,7.35-.47,10.66-.47,9.36,0,21.11,1.29,24,7.41,3.15,6.71-4.5,13.9-9.56,18.66-.87.81-1.68,1.57-2.36,2.26a86.74,86.74,0,0,0-8,8.71l-.33.46h.37l.2-.28a86.42,86.42,0,0,1,8-8.68c.68-.68,1.49-1.45,2.35-2.25C302.56,434,310.3,426.69,307.07,419.79Z"/><path class="cls-1" d="M101.06,403.64c-4.45-1.14-9.24-1.22-13.86-1.29-2.67,0-5.43-.08-8.06-.33a98.16,98.16,0,0,1-34-9.16,257.47,257.47,0,0,1-26.23-14.62A13.29,13.29,0,0,0,12,376c-4.19,0-8.51,2.74-12,7.31v.5c3.45-4.69,7.79-7.51,12-7.51a12.9,12.9,0,0,1,6.8,2.18,258.15,258.15,0,0,0,26.27,14.63,98.41,98.41,0,0,0,34.05,9.19c2.65.25,5.41.29,8.09.33,4.6.07,9.37.15,13.78,1.28,6.88,1.77,6.63,6.79,5.65,12.68-1.16,7-2.13,14-1.17,21.9a102,102,0,0,0,2.13,11.5h.31a102.76,102.76,0,0,1-2.14-11.54c-1-7.87,0-14.81,1.17-21.81C107.89,410.84,108.17,405.47,101.06,403.64Z"/><path class="cls-1" d="M127.65,8.66c6.85,21.34,9.64,32.94-7.37,42.77A32.12,32.12,0,0,1,110.86,55a46.07,46.07,0,0,1-9.59.94c-31.61,0-75-26.42-98.37-40.61l-.8-.48L0,13.54v.59l1.83,1.11.8.49C26,30,69.52,56.41,101.27,56.41a47.1,47.1,0,0,0,9.69-.95,32.78,32.78,0,0,0,9.57-3.6c17.34-10,14.53-21.76,7.59-43.35-.88-2.74-1.79-5.59-2.62-8.5H125C125.82,3,126.75,5.88,127.65,8.66Z"/><path class="cls-1" d="M87.73,5.61c.2.76.48,1.68.8,2.72.9,3,.74,4.95-.48,5.93A4.16,4.16,0,0,1,85.4,15c-4.88,0-13-4.36-15.68-5.79-1.3-.7-2.29-1.22-3.06-1.61l-4.1-2Q56.92,2.84,51.56,0h-.64c3.71,2,7.55,3.91,11.49,5.84l4.1,2c.77.39,1.75.91,3,1.61,2.69,1.44,10.86,5.82,15.82,5.82a4.44,4.44,0,0,0,2.84-.81c1.32-1.06,1.52-3.16.58-6.25-.32-1-.6-2-.8-2.71C87.54,3.72,87,1.89,86.6,0h-.31C86.75,1.92,87.24,3.78,87.73,5.61Z"/><path class="cls-1" d="M118.22,11.69c2.78,8.64,5.43,19.48,1.28,26.63-2,3.55-5.65,5.89-10.7,7a36.51,36.51,0,0,1-7.52.72C72.43,46,30.55,20.53,8,6.84L3.89,4.32C2.62,3.55,1.32,2.83,0,2.15v.34c1.26.66,2.5,1.35,3.73,2.09L7.89,7.1c22.52,13.7,64.46,39.21,93.39,39.21a36.34,36.34,0,0,0,7.58-.73c5.13-1.09,8.8-3.48,10.9-7.11,4.21-7.26,1.54-18.17-1.25-26.88C117.31,7.86,116.12,4,115.11,0h-.32C115.82,4,117,7.93,118.22,11.69Z"/><path class="cls-1" d="M94.5,3.81c.18.68.43,1.52.73,2.48,1.45,4.76,3.64,12,1.57,15.27a5.85,5.85,0,0,1-3.9,2.62,10.19,10.19,0,0,1-2.33.24c-7.3,0-18.27-5.88-24.16-9-1.14-.61-2.13-1.14-2.87-1.51l-.53-.3-1.62-.8-1.93-1C51.52,8,44,4,37,0H36.4c7.1,4.05,14.82,8.14,23,12.12l1.93,1,1.61.8.52.26c.73.37,1.72.89,2.86,1.51,5.91,3.17,16.92,9.07,24.3,9.07a10.74,10.74,0,0,0,2.4-.24,6.2,6.2,0,0,0,4-2.81C99.2,18.29,97,11,95.51,6.2c-.29-1-.54-1.79-.72-2.46L93.79,0h-.31C93.83,1.29,94.16,2.56,94.5,3.81Z"/><path class="cls-1" d="M101.26,2c1.42,5.34,2.89,10.85,3,16.55.2,7.36-2.67,11.57-8.52,12.52a19.15,19.15,0,0,1-2.83.21c-10.17,0-24.72-7.26-32.54-11.16l-2.1-1-1.93-.94C44.23,12.19,33,6,23.27,0H22.7c9.79,6.08,21.22,12.36,33.56,18.41l1.93.94,2.09,1C68.12,24.31,82.72,31.59,93,31.59a19.69,19.69,0,0,0,2.87-.21c6-1,9-5.3,8.78-12.83C104.5,12.82,103,7.29,101.6,1.93,101.38,1.3,101.21.65,101,0h-.31C100.91.68,101.08,1.35,101.26,2Z"/><path class="cls-1" d="M111.56,13.83c.14.45.29.91.45,1.37,1.59,4.87,3.25,9.9.58,14.75a17.87,17.87,0,0,1-11.5,8.37c-.49.1-1,.19-1.46.24a32.82,32.82,0,0,1-3.71.21c-13.43,0-29.18-7.74-40.68-13.39l-1.93-.95C38.54,17.2,24.27,8.52,11.68.86L10.28,0H9.7l1.82,1.11C24.12,8.78,38.39,17.46,53.18,24.7l1.93.95c11.52,5.66,27.31,13.42,40.81,13.42a33.53,33.53,0,0,0,3.75-.21c.49-.06,1-.14,1.49-.25a18.22,18.22,0,0,0,11.69-8.51c2.73-5,1.06-10.07-.56-15l-.45-1.38c-1.41-4.38-2.79-9-3.94-13.72h-.31C108.75,4.79,110.14,9.42,111.56,13.83Z"/><path class="cls-1" d="M100.67,223.24c-4.39,1.09-8.22,7.16-11.31,12a53.62,53.62,0,0,1-3,4.47,212.12,212.12,0,0,1-16,17.76c-1.41,1.45-3.19,3.1-5.07,4.84-5.58,5.17-12.52,11.6-14.63,17.49-1.77,5-.73,9.68.28,14.25.83,3.75,1.69,7.62,1,11.65-.42,2.5-1.93,5-3.53,7.56-1.92,3.12-3.9,6.34-4,9.81a9.26,9.26,0,0,0,.54,3.46c1.32,3.7,2.7,5.43,4.34,5.43s3.39-1.69,6-5.82c2.5-3.95,3.48-8.52,4.43-12.95s1.94-9,4.46-13c4.8-7.56,13.26-13.14,20.72-18.05l1.87-1.24c12.4-8.21,22.18-14.69,26.55-32.16,1.16-4.62.85-16.4-3.85-22.42A8.05,8.05,0,0,0,100.67,223.24Zm8.43,3.43c4.21,5.4,5,16.81,3.76,22-4.32,17.28-14,23.71-26.35,31.87l-1.86,1.23c-7.51,4.94-16,10.55-20.87,18.2-2.57,4-3.56,8.68-4.53,13.17s-1.91,8.87-4.36,12.77c-1.75,2.76-3.78,5.59-5.58,5.59-1.38,0-2.65-1.67-3.87-5.1a8.51,8.51,0,0,1-.51-3.28c.11-3.33,2.06-6.5,3.94-9.56,1.63-2.64,3.17-5.14,3.61-7.74.69-4.12-.18-8.05-1-11.84-1-4.71-2-9.15-.3-14,2.07-5.77,9-12.16,14.5-17.3,1.89-1.74,3.67-3.39,5.09-4.85a214.24,214.24,0,0,0,16-17.8c.91-1.17,1.93-2.8,3-4.51,3-4.81,6.81-10.79,11-11.82a9.09,9.09,0,0,1,2.2-.28,7.58,7.58,0,0,1,6.13,3.25Z"/><path class="cls-1" d="M105.27,201.53a9.07,9.07,0,0,0-6.64-4.34,11,11,0,0,1-4.87-2l-.15-.18c-5.1-5.71-22.2-24.33-28-24.33a1.9,1.9,0,0,0-1.58.72c-.77,1-.73,3,.12,6.21.51,1.89,5.35,4.48,10.48,7.24,4.27,2.29,8.69,4.66,10.19,6.44,1.34,1.59,3.11,3.8,3,4.57,0,.21-.27.33-.66.52-.9.45-2.25,1.12-1.53,4.28a22.44,22.44,0,0,0,3.16,6.44,22.44,22.44,0,0,1,2.83,5.59c1.28,4.92-6.78,13.95-12.11,19.92-1.76,2-3.28,3.68-4.25,5a137.58,137.58,0,0,1-13.4,14.54c-9.11,9-18.53,18.26-21.84,31.07-5,19.12-6,36-3,50.23,1.6,7.58,7.12,18.15,12.47,18.15,3.33,0,5.76-4,7.21-11.9,5.6-30.43,20.88-40.55,35.65-50.34,13.09-8.67,25.45-16.86,30.77-38.13,2-8-1.08-20.37-5.09-27.2a21.51,21.51,0,0,0-6.22-6.42,19.48,19.48,0,0,1-5.12-5c-1-1.55-.81-3.36-.63-5.28S106.48,203.27,105.27,201.53Zm.85,11.43a19.68,19.68,0,0,0,5.29,5.2,20.94,20.94,0,0,1,6,6.22c3.94,6.71,7,18.82,5,26.68-5.25,21-17.5,29.13-30.48,37.72C77.09,298.65,61.69,308.86,56,339.57c-1.36,7.41-3.62,11.33-6.52,11.33-4.55,0-10.07-9.46-11.79-17.59-3-14.09-2-30.9,2.93-49.94,3.26-12.63,12.61-21.84,21.65-30.75A137.11,137.11,0,0,0,75.77,238c1-1.26,2.46-3,4.21-4.91,5.76-6.45,13.64-15.29,12.27-20.56a22.51,22.51,0,0,0-2.92-5.79,22.33,22.33,0,0,1-3.07-6.23c-.59-2.62.34-3.08,1.16-3.49.45-.22.92-.46,1-1,.16-.73-.31-1.85-3.1-5.16-1.58-1.88-6.06-4.29-10.39-6.61-4.55-2.44-9.7-5.21-10.13-6.8-1-3.62-.67-5-.24-5.6a1.2,1.2,0,0,1,1-.45c4.37,0,17.06,12.45,27.48,24.1l.21.22a11.84,11.84,0,0,0,5.18,2.17,8.38,8.38,0,0,1,6.22,4c1,1.53.88,3.36.69,5.3s-.33,4,.78,5.81Z"/><path class="cls-1" d="M0,136.62c33.72,19.08,70.06,49.44,76.68,64.53,4,9.06-5.66,19.89-17.85,33.6C45,250.33,27.73,269.72,26.66,293,25.35,321.36,11.29,333,0,336.53v.74C11.55,333.75,26,322,27.36,293c1.06-23,18.22-42.31,32-57.81,12.36-13.9,22.12-24.88,18-34.35C70.66,185.67,34,155,0,135.87Z"/><path class="cls-1" d="M169.88.07V0h-.41a8.21,8.21,0,0,0-1.7,2.39c-1.24,2.92-.89,6-.55,8.91a31,31,0,0,1,.31,5,54.35,54.35,0,0,1-1.17,7.93c-.42,2.16-.86,4.39-1.07,6.57-1.23,13.2-.07,25.2,3.49,35.54.74,2.14,3.64,5.45,6.71,9,3.92,4.47,8,9.11,8.14,11.92a1.94,1.94,0,0,1-.49,1.51c-1.06,1.12-3.9,1.33-8.45.61a40.92,40.92,0,0,1-9.55-3.24c-1.79-.78-3.65-1.59-5.5-2.21L158,83.36c-6.65-2.19-15.76-5.2-17.06-10.46-.62-2.51.6-5.38,3.63-8.53,4.77-5,9.7-10.09,13-17.88,3.2-7.47,6.88-22,5.47-29.86a10.1,10.1,0,0,0-1.61-3.75,6.7,6.7,0,0,1-1.32-5.15A8.55,8.55,0,0,1,161.76,4,5.45,5.45,0,0,0,163,0h-.3a5.14,5.14,0,0,1-1.14,3.82,8.61,8.61,0,0,0-1.62,3.85A6.88,6.88,0,0,0,161.24,13a9.83,9.83,0,0,1,1.58,3.65c1.4,7.81-2.27,22.26-5.46,29.69-3.32,7.74-8.24,12.85-13,17.79-3.11,3.23-4.35,6.19-3.7,8.81,1.34,5.43,10.54,8.46,17.25,10.68l1.63.54c1.83.61,3.68,1.42,5.47,2.19a40.44,40.44,0,0,0,9.62,3.26,29.46,29.46,0,0,0,4.59.43c2.06,0,3.41-.37,4.13-1.13a2.24,2.24,0,0,0,.57-1.73c-.17-2.91-4.26-7.59-8.22-12.1-3-3.48-5.92-6.77-6.64-8.86C165.5,55.9,164.35,44,165.63,30.8c.21-2.16.64-4.38,1.07-6.54a56.72,56.72,0,0,0,1.17-8,31,31,0,0,0-.31-5c-.35-3-.68-5.9.53-8.75A8.28,8.28,0,0,1,169.88.07Z"/><path class="cls-1" d="M137.07,5.63C143.4,25.34,149.94,45.72,125.23,60a42.11,42.11,0,0,1-12.31,4.66,57,57,0,0,1-11.65,1.15C67.86,65.81,26.07,41,0,25.13V26C26.16,41.83,67.83,66.51,101.27,66.51a57,57,0,0,0,11.79-1.17,42.85,42.85,0,0,0,12.52-4.73c25.2-14.6,18.57-35.22,12.16-55.19L136,0h-.74C135.86,1.87,136.47,3.74,137.07,5.63Z"/><path class="cls-1" d="M95.88,413.12c-3.64-3.37-9.08-3.65-13.88-3.9-1.24-.07-2.4-.13-3.53-.23a104.55,104.55,0,0,1-36.3-9.82A169.76,169.76,0,0,1,18.39,385.8,9.48,9.48,0,0,0,13,384c-4.1,0-8,3.22-10.32,8.6-.9,2-1.78,4-2.68,6v.72q1.5-3.25,3-6.61c2.26-5.31,6-8.46,10-8.46A9.13,9.13,0,0,1,18.22,386,172.35,172.35,0,0,0,42,399.45a104.82,104.82,0,0,0,36.4,9.83c1.14.11,2.3.17,3.54.24,4.75.25,10.14.53,13.7,3.82,4.12,3.82,3.54,11.07,3,17.46a46.09,46.09,0,0,0-.2,8.55A80.88,80.88,0,0,0,100.73,450H101a81.31,81.31,0,0,1-2.23-10.7,45.32,45.32,0,0,1,.2-8.48C99.53,424.36,100.11,417,95.88,413.12Z"/><path class="cls-1" d="M2.42,430.48c-.88-.35-1.69-.68-2.41-1.05v.33c.71.36,1.48.67,2.29,1,.43.16.86.34,1.3.52a89.09,89.09,0,0,1,15.47,8.05c5.16,3.48,11,7.07,17.31,10.68H37c-6.5-3.7-12.48-7.37-17.76-10.93A89.73,89.73,0,0,0,3.72,431C3.27,430.82,2.84,430.64,2.42,430.48Z"/><path class="cls-1" d="M15.16,445.13c2.38,1.61,4.91,3.24,7.55,4.88h.56q-4.17-2.6-8-5.12A93,93,0,0,0,0,437v.32A94.69,94.69,0,0,1,15.16,445.13Z"/><path class="cls-1" d="M9.35,208.19c-.49-3.22-2.71-6.1-6.8-8.81L0,197.69V198l2.38,1.58c4,2.66,6.19,5.47,6.67,8.61.79,5.18-3.15,10.53-8,16.48-.32.41-.68.9-1.06,1.43v.52c.47-.67.9-1.27,1.3-1.76C6.19,218.9,10.17,213.5,9.35,208.19Z"/><path class="cls-1" d="M7.52,448.34h0A70.5,70.5,0,0,0,0,444.41v.33a70.5,70.5,0,0,1,7.36,3.85L9.7,450h.58Z"/><path class="cls-1" d="M68.2,1c1.87,1,4.44,2.25,6.71,2.25a4.26,4.26,0,0,0,2.45-.69l.17-.13A4.8,4.8,0,0,0,79,0h-.52a4.18,4.18,0,0,1-1.3,2l-.14.1a3.7,3.7,0,0,1-2.17.61c-2.15,0-4.65-1.27-6.49-2.19-.27-.14-.53-.28-.77-.39L67.33,0H66.19l1.24.61Z"/><path class="cls-1" d="M72.9,441a3.93,3.93,0,0,0-.35-3.34c-1.47-2.27-5.43-2.85-8.32-3.27l-1.32-.2-.65-.13a41.18,41.18,0,0,0-7-.93,3.88,3.88,0,0,0-2.76.69,1.13,1.13,0,0,0-.31.85c.14,2.59,4.1,4.18,6.47,5.13.37.15.71.28,1,.41.64.27,1.36.63,2.13,1,2.44,1.22,5.21,2.6,7.58,2.6a6.52,6.52,0,0,0,.88-.07A3.38,3.38,0,0,0,72.9,441Zm-2.78,2.18a5.12,5.12,0,0,1-.78.06c-2.24,0-4.94-1.35-7.33-2.53-.77-.39-1.5-.75-2.15-1-.28-.13-.62-.26-1-.41-2.24-.9-6-2.41-6.11-4.63a.5.5,0,0,1,.15-.42c.22-.24.81-.52,2.34-.52a40.16,40.16,0,0,1,6.9.93l.66.13,1.34.2c2.62.39,6.59,1,7.92,3a3.37,3.37,0,0,1,.28,2.87A2.82,2.82,0,0,1,70.12,443.19Z"/><path class="cls-1" d="M92.39,427.64c.47-2.94,1-6-1-8.29-2.32-2.76-6.1-3-9.44-3.12H81.6c-1.18-.06-2.53-.13-3.82-.26a111.23,111.23,0,0,1-38.66-10.46c-3.81-1.82-7.55-3.89-11.17-5.9-2-1.1-4-2.24-6.09-3.33l-.14-.07c-2.4-1.27-4.88-2.59-7.44-2.59a6.55,6.55,0,0,0-3.71,1.12c-4.07,2.64-6,7.79-7.91,12.76A57,57,0,0,1,0,413.74v.62a50.62,50.62,0,0,0,3-6.78c1.87-4.92,3.8-10,7.79-12.61a6.33,6.33,0,0,1,3.55-1.07c2.48,0,4.93,1.3,7.3,2.55l.14.08c2,1.08,4.09,2.22,6.08,3.32,3.63,2,7.37,4.09,11.19,5.91a111.74,111.74,0,0,0,38.76,10.49c1.3.13,2.65.2,3.84.26H82c3.28.16,7,.36,9.23,3,1.85,2.21,1.37,5.18.9,8.05-.15.93-.29,1.8-.36,2.66a50.8,50.8,0,0,0-.17,9.94A78.54,78.54,0,0,0,93.5,450h.31a76.88,76.88,0,0,1-2-9.86,51.77,51.77,0,0,1,.17-9.88C92.1,429.43,92.24,428.56,92.39,427.64Z"/><path class="cls-1" d="M18.2,211.58c2.6-7.31,0-10.24-11.79-18l-2.83-1.89C2.35,190.82,1.17,190,0,189.22v.37l3.41,2.32,2.83,1.88c11.61,7.7,14.2,10.58,11.67,17.69-2.29,6.43-6.72,11.89-11.41,17.66-2.19,2.69-4.41,5.43-6.5,8.36V238c2.15-3.06,4.46-5.91,6.73-8.69C11.45,223.53,15.89,218.06,18.2,211.58Z"/><path class="cls-1" d="M79.1,423.71c-3.16-1.38-6.61-1.71-10-2a55.28,55.28,0,0,1-5.74-.75,117.59,117.59,0,0,1-27.27-9.12c-4-1.91-7.84-4-11.56-6.1-.52-.29-1.14-.68-1.78-1.09-2.15-1.37-4.82-3.07-7.2-3.07a4.12,4.12,0,0,0-2.38.72c-1.82,1.27-2.68,3.84-3.44,6.11-.19.56-.37,1.1-.55,1.58a30.55,30.55,0,0,1-1.66,3.28c-1.66,3-3.73,6.77-3,9s3.73,3.53,6.11,4.53c.54.23,1,.44,1.49.65A83.34,83.34,0,0,1,23,433.52,303.36,303.36,0,0,0,51,450h.64a309.07,309.07,0,0,1-28.43-16.74,83.54,83.54,0,0,0-10.84-6.09c-.44-.21-1-.43-1.5-.66-2.33-1-5.23-2.19-5.94-4.34s1.33-5.83,3-8.8a29.37,29.37,0,0,0,1.68-3.31c.19-.49.37-1,.56-1.6.74-2.22,1.58-4.74,3.32-6a3.79,3.79,0,0,1,2.21-.67c2.3,0,4.92,1.68,7,3,.66.42,1.27.81,1.82,1.11C28.16,408,32,410.16,36,412.08a118.36,118.36,0,0,0,27.34,9.15,56.21,56.21,0,0,0,5.77.75c3.32.32,6.74.65,9.86,2,5.5,2.41,5.48,7.11,5.45,12.08a41.71,41.71,0,0,0,.18,5,81,81,0,0,0,1.68,9h.31a81,81,0,0,1-1.69-9,40.72,40.72,0,0,1-.18-4.94C84.76,431,84.78,426.19,79.1,423.71Z"/><path class="cls-1" d="M65.69,449.21a333.46,333.46,0,0,1-38.58-21.82,41.35,41.35,0,0,0-4.3-2.44,30.55,30.55,0,0,1-5.8-3.57c-2.37-2-3-4-2-6.42a4.08,4.08,0,0,1,4.06-2.82c3.23,0,7.55,2.62,10.69,4.54,1.25.75,2.32,1.4,3.16,1.8a124.15,124.15,0,0,0,29,9.7,59.5,59.5,0,0,0,6.51.87l1.12.09c2.51.2,5.35.43,7,2.29s1.86,5.66,2,8.71c0,.84.07,1.64.13,2.33v.38c.19,2,.46,5-.26,7.16H79c.69-2.26.42-5.2.24-7.21v-.37c-.06-.69-.09-1.48-.13-2.31-.13-3.13-.3-7-2.12-9s-4.78-2.25-7.38-2.46l-1.12-.09a60.89,60.89,0,0,1-6.45-.86A124.39,124.39,0,0,1,33.16,418a32.54,32.54,0,0,1-3.11-1.78c-3.19-2-7.58-4.61-10.95-4.61a4.6,4.6,0,0,0-4.52,3.13c-1.09,2.63-.41,4.85,2.12,7a30.93,30.93,0,0,0,5.88,3.63,41.42,41.42,0,0,1,4.25,2.41,334.47,334.47,0,0,0,38.64,21.85l.72.36h1.14Z"/><path class="cls-1" d="M97.08,249.27H97c-1.42,0-2.86,1.81-3.91,3.12-.23.29-.43.54-.61.74-1,1.14-1.94,2.33-2.87,3.48-.59.75-1.19,1.49-1.8,2.23l-.08.08c-2,2.37-2.81,3.91-2.49,4.72a.93.93,0,0,0,.85.56h.29c4-.08,7.24-3.71,8.82-5.86a16.88,16.88,0,0,0,3-6.08,3.77,3.77,0,0,0-.24-2.58A1.14,1.14,0,0,0,97.08,249.27Zm.59,2.9A16.19,16.19,0,0,1,94.8,258c-1.52,2.08-4.63,5.58-8.42,5.66v0H86.2c-.36,0-.42-.19-.44-.24-.11-.28-.1-1.24,2.41-4.21l.07-.09c.62-.74,1.21-1.49,1.81-2.24.92-1.14,1.87-2.33,2.86-3.46.18-.2.39-.46.62-.75.93-1.17,2.34-2.94,3.57-2.94h0a.56.56,0,0,1,.46.23,3.15,3.15,0,0,1,.11,2.2Z"/><path class="cls-1" d="M202.58,350.58c13.27-1.51,27.5-16.88,27.68-29.9.28-20-11.19-35.91-22.29-51.33-1.89-2.61-3.84-5.32-5.68-8l-1.1-1.6c-5.23-7.52-11.15-16-13.07-25.26-1.63-7.81-4.12-26-1.41-32.26,2-4.59,7.65-7.22,13.12-9.77,3.78-1.75,7.36-3.41,9.87-5.69l.11-.1c8.58-7.78,8.58-7.78,14.43-8,1.77-.06,4-.13,7.08-.43a52.49,52.49,0,0,0,8.43-1.44,12.42,12.42,0,0,1,2.71-.48c1.8,0,3.31,1.27,8.3,5.5C265.51,194.31,265.23,216,265,237c-.34,26.43-.69,53.77,29.23,62.42a45.23,45.23,0,0,0,12.45,1.87c11.25,0,20.82-5,27.69-14.53,10.08-13.94,12.76-35.71,6.67-54.16-14.07-42.58-47.69-66.93-83.86-90.13-32.86-21.09-64.17-26.9-90.93-30.69a40.3,40.3,0,0,0-5.48-.41c-10.85,0-16,5.52-22.54,12.5a111.66,111.66,0,0,1-8.3,8.27c-3.68,3.23-8.36,5.45-12.88,7.59-7.38,3.49-14.35,6.78-17.23,14.11-6.11,15.55,8.9,27.66,22.15,38.35,6.13,5,11.92,9.63,15.31,14.3,13.46,18.52,9.43,49.75-2.77,67.3-3.81,5.47-11.11,12.25-18.83,19.42-12.8,11.88-27.31,25.35-29.87,36.66-1.21,5.33-.89,9,1,11.36,1.55,1.94,4.16,2.88,8,2.88,6.29,0,15.3-2.59,24.83-5.34,11.65-3.35,24.86-7.15,36.12-7.15a32.33,32.33,0,0,1,13.59,2.56,58.31,58.31,0,0,1,11.57,7.59c5.87,4.56,11.41,8.87,19.25,8.87C201,350.69,201.77,350.65,202.58,350.58ZM169.45,333.8a32.85,32.85,0,0,0-13.8-2.6c-11.34,0-24.58,3.81-36.26,7.17-9.5,2.74-18.47,5.32-24.69,5.32-3.65,0-6.13-.88-7.58-2.69-1.75-2.2-2-5.77-.87-10.93,2.53-11.17,17-24.58,29.73-36.41,7.74-7.19,15.06-14,18.9-19.51,12.3-17.68,16.35-49.18,2.77-67.88-3.43-4.72-9.25-9.42-15.41-14.39-13.11-10.58-28-22.57-22-37.78,2.81-7.14,9.69-10.4,17-13.84,4.56-2.16,9.27-4.38,13-7.66a116.47,116.47,0,0,0,8.33-8.3C145,117.4,150.11,112,160.75,112a37.68,37.68,0,0,1,5.41.41c26.71,3.78,58,9.58,90.74,30.61,36.08,23.15,69.63,47.44,83.64,89.87,6,18.3,3.4,39.89-6.59,53.71-6.77,9.37-16.21,14.32-27.29,14.32A44.37,44.37,0,0,1,294.33,299c-13.26-3.84-21.64-11.71-25.64-24.07-3.57-11.08-3.4-24.7-3.23-37.87.27-21.12.55-43-14.38-55.6-7.14-6.05-7.33-6.14-11.45-5.12a51.32,51.32,0,0,1-8.35,1.43c-3.1.29-5.29.36-7.05.42-6,.21-6,.21-14.75,8.11l-.12.1c-2.45,2.22-6,3.87-9.74,5.61-5.56,2.58-11.31,5.26-13.37,10-2.76,6.39-.26,24.69,1.38,32.55,1.94,9.31,7.89,17.88,13.15,25.45l1.1,1.59c1.84,2.67,3.79,5.38,5.68,8,11,15.35,22.48,31.23,22.2,51-.18,12.81-14.18,27.92-27.24,29.41a22.54,22.54,0,0,1-2.46.14c-7.67,0-13.15-4.25-18.94-8.76C177.54,338.68,173.84,335.8,169.45,333.8Z"/><path class="cls-1" d="M450,2.15c-1.5-.77-3-1.49-4.59-2.14h-.82c1.85.75,3.65,1.57,5.41,2.48Z"/><path class="cls-1" d="M436.4,196.59c-.5-.37-1.29-1.05-2.28-1.92-3.81-3.31-10.18-8.87-14.66-8.87a4.11,4.11,0,0,0-3.9,2.53c-1.05,2.11,1.25,7,2.77,10.21.37.79.69,1.47.89,2,.41,1,.78,1.94,1.1,2.76a169.1,169.1,0,0,1,5.95,17.54c.17.65.33,1.38.51,2.16.74,3.33,1.67,7.47,4,9.5a7,7,0,0,0,2.59,1.55,3.78,3.78,0,0,0,1.11.17c2.72,0,4.59-3.09,6.4-6.08.41-.68.84-1.38,1.26-2l.41-.62c6.89-10.49,11.05-16.82-1.62-25.62C439.67,199,438.07,197.81,436.4,196.59Zm5.7,28.59-.4.61c-.43.66-.86,1.37-1.28,2.05-1.73,2.87-3.53,5.84-6,5.84a3.37,3.37,0,0,1-1-.15,6.72,6.72,0,0,1-2.4-1.45c-2.18-1.92-3.09-6-3.82-9.22-.17-.79-.34-1.53-.51-2.19a165.63,165.63,0,0,0-6-17.59c-.32-.82-.7-1.76-1.11-2.76-.21-.51-.53-1.2-.9-2-1.39-2.95-3.71-7.89-2.77-9.78a3.61,3.61,0,0,1,3.45-2.25c4.3,0,10.58,5.48,14.33,8.75,1,.87,1.79,1.56,2.32,2,1.67,1.22,3.27,2.38,4.51,3.24,12.36,8.48,8.3,14.66,1.58,24.9Z"/><path class="cls-1" d="M444.6,185.37c-2.21-1.61-4.41-3.41-6.74-5.32-7.13-5.82-15.21-12.41-22.47-12.41a11.52,11.52,0,0,0-4.15.77c-12.82,4.84-11,18.4-8.75,26,1.37,4.67,3.14,9.3,4.85,13.77a154.71,154.71,0,0,1,5.48,16.09,79.68,79.68,0,0,1,1.72,10.17c1.29,10.35,2.51,20.12,16.31,20.12,1.09,0,2.27-.06,3.5-.18a18.72,18.72,0,0,0,4-.76c3.67-1.18,4.77-3.4,6.43-6.77.5-1,1.07-2.18,1.78-3.42q1.59-2.79,3.45-5.42v-.52a68.75,68.75,0,0,0-3.75,5.83c-.71,1.25-1.28,2.41-1.79,3.43-1.63,3.3-2.7,5.48-6.25,6.63a19.18,19.18,0,0,1-3.9.74c-1.22.12-2.39.18-3.47.18-13.54,0-14.68-9.2-16-19.86a78.3,78.3,0,0,0-1.73-10.21,157.68,157.68,0,0,0-5.49-16.12c-1.71-4.47-3.48-9.08-4.84-13.74-2.21-7.56-4-20.93,8.56-25.69a11.23,11.23,0,0,1,4-.75c7.16,0,15.19,6.56,22.28,12.35,2.33,1.9,4.54,3.7,6.75,5.32,1.67,1.22,3.14,2.29,4.24,3.05l1.35.93v-.37l-1.18-.81C447.73,187.65,446.26,186.58,444.6,185.37Z"/><path class="cls-1" d="M436.7,408.76a209,209,0,0,1-13.64,18.38c-.22.28-.46.56-.71.85-1.8,2.11-4,4.74-2.46,7.38s5.9,3.07,9.1,3.44l1.57.21A73.74,73.74,0,0,1,450,444.74v-.33a74.27,74.27,0,0,0-19.41-5.69c-.46-.07-1-.13-1.58-.2-3.13-.37-7.42-.88-8.87-3.3s.69-5,2.43-7l.72-.86A209.59,209.59,0,0,0,437,409c3.91-6.08,6.67-12.38,9.6-19.05a31.69,31.69,0,0,1,3.46-6v-.5a31.94,31.94,0,0,0-3.74,6.42C443.35,396.41,440.59,402.7,436.7,408.76Z"/><path class="cls-1" d="M329.71,5.28c1.56,5.28,12.73,8.2,19.85,8.2,10.16,0,20.81-2,32.09-4.13S404.81,5,416.27,5c12.55,0,23.1,2.69,32.24,8.22l1.5.91v-.58c-.41-.26-.84-.52-1.25-.76-9.21-5.58-19.84-8.29-32.49-8.29-11.5,0-23.3,2.22-34.71,4.36S359.67,13,349.56,13c-7.12,0-17.94-3-19.37-7.84q-.72-2.44,1.73-5.13h-.66C329.73,1.82,329.2,3.58,329.71,5.28Z"/><path class="cls-1" d="M414.06,39.94h-7.42c-6.82,0-12.24.37-18.23,2.19A55.26,55.26,0,0,0,379.52,46c-4.74,2.41-9.21,4.69-14.56,4.69a18.34,18.34,0,0,1-2.67-.19c-4-.57-6.91-2.9-9.77-5.15-3.21-2.53-6.24-4.92-10.5-4.92a11.66,11.66,0,0,0-1.18.06c-2.62.27-6.83,2.63-10.89,4.92a56.47,56.47,0,0,1-6.84,3.5,47.32,47.32,0,0,1-5.85,1.73c-4.21,1-4.74,1.37-6.78,9.11-.56,2.14-1,4.14-1.37,6.07C307.64,73,306.48,78.64,298.83,84c-5.17,3.65-11.72,5.42-20,5.42S262,87.71,254.38,86.18c-4-.79-7.73-1.54-10.51-1.84-1.62-.17-4.12-.28-6.68-.28-7.34,0-15.94,2.69-16.54,6.55-.29,1.82,1.14,4.57,9.56,7.26l.93.3c32.07,10.28,54.44,23.71,77.21,46.33,6.27,6.24,11.07,9.15,15.09,9.15a7.77,7.77,0,0,0,2.74-.5c4.27-1.59,7.38-7,11-13.22,1.86-3.22,4-6.87,6.47-10.39a91,91,0,0,1,48.8-35A60.28,60.28,0,0,1,409,92.09c17.27,0,29.46,8.46,41,17.16v-.63c-11.52-8.67-23.71-17-41-17a61.22,61.22,0,0,0-16.74,2.49,91.56,91.56,0,0,0-49.07,35.22c-2.51,3.53-4.63,7.19-6.49,10.42-3.56,6.16-6.63,11.48-10.73,13a7.49,7.49,0,0,1-2.57.46c-3.88,0-8.56-2.86-14.74-9-22.83-22.68-45.25-36.14-77.4-46.45l-.94-.3c-6.3-2-9.58-4.4-9.22-6.7.5-3.21,8.15-6.13,16-6.13,2.54,0,5,.11,6.62.28,2.77.29,6.51,1,10.47,1.84C261.87,88.24,270.51,90,278.8,90s15.07-1.8,20.32-5.51c7.81-5.53,9-11.28,10.48-18.57.4-1.93.8-3.92,1.37-6,2-7.71,2.44-7.81,6.4-8.76a46.56,46.56,0,0,0,5.91-1.74,56.23,56.23,0,0,0,6.91-3.54c3.84-2.15,8.18-4.59,10.7-4.85A10.69,10.69,0,0,1,342,41c4.08,0,7.05,2.34,10.2,4.81,2.91,2.29,5.92,4.66,10,5.25a19.46,19.46,0,0,0,2.75.2c5.47,0,10.2-2.41,14.78-4.74a54.4,54.4,0,0,1,8.82-3.85c5.92-1.8,11.31-2.17,18.08-2.17h7.42a60.48,60.48,0,0,1,16.71,2.18A127.35,127.35,0,0,1,450,50.09v-.56a128.23,128.23,0,0,0-19.1-7.39A60.74,60.74,0,0,0,414.06,39.94Z"/><path class="cls-1" d="M439.18,416.94c-3.24,3.89-6.91,8.3-6.74,12.52.14,3.25,3.28,3.8,6.06,4.28.67.12,1.3.23,1.9.37a69.23,69.23,0,0,1,9.61,3.26V437a67.76,67.76,0,0,0-9.54-3.23c-.61-.15-1.24-.26-1.92-.38-2.79-.48-5.68-1-5.81-4-.17-4.1,3.46-8.46,6.67-12.31a48.8,48.8,0,0,0,3.43-4.42A107.43,107.43,0,0,0,450,399.29v-.72a108.91,108.91,0,0,1-7.42,14A47.9,47.9,0,0,1,439.18,416.94Z"/><path class="cls-1" d="M444.84,194.16c-1.16-.8-2.73-1.94-4.37-3.14-2.35-1.72-4.62-3.57-7-5.55-.54-.44-1.14-.94-1.77-1.48-4-3.42-9.55-8.1-14.62-8.1a7.24,7.24,0,0,0-3.87,1.09c-8.77,5.42-3.5,18.38-.34,26.13.38.94.74,1.83,1,2.62a158.56,158.56,0,0,1,5.72,16.82c.29,1.1.58,2.4.88,3.77,1.4,6.28,3.32,14.89,8.13,18a6.16,6.16,0,0,0,2.48,1,6.81,6.81,0,0,0,.78,0c5.88,0,11.74-8.93,16-15.46.78-1.18,1.48-2.25,2.13-3.18v-.52c-.71,1-1.5,2.2-2.38,3.54-4.24,6.47-10.05,15.32-15.77,15.32a6.13,6.13,0,0,1-.74-.05,5.77,5.77,0,0,1-2.36-.9c-4.7-3-6.6-11.57-8-17.81-.31-1.37-.6-2.67-.89-3.78a156.14,156.14,0,0,0-5.73-16.85c-.3-.79-.66-1.68-1.05-2.62-3.11-7.66-8.33-20.47.23-25.77a7,7,0,0,1,3.71-1c5,0,10.43,4.64,14.43,8,.63.54,1.22,1,1.78,1.5,2.41,2,4.68,3.82,7,5.54,1.64,1.2,3.21,2.34,4.38,3.15,1.56,1.08,3.13,2.15,4.82,3.29l.52.35v-.36l-.37-.25C448,196.31,446.4,195.24,444.84,194.16Z"/><path class="cls-1" d="M392.86,265.13c.56.74,1.63,1.76,4.3,2,10,.82,25.1,2.06,37.85,13.68l.15.13a44.13,44.13,0,0,1,10.52,15c.73,1.64,1.91,2.59,3.23,2.59a2.78,2.78,0,0,0,1.1-.23v-.36a2.5,2.5,0,0,1-1.1.29c-1.2,0-2.28-.88-3-2.41a44.43,44.43,0,0,0-10.6-15.08l-.15-.14c-12.83-11.68-28-12.92-38-13.75-2.55-.2-3.55-1.15-4.09-1.85a7.71,7.71,0,0,1-1.28-5c1.39-6.12,3.12-13.74,2.47-22.08-1.1-14.11-6.74-26.23-12.2-38-4.38-9.41-9.34-20.08-7.62-24.94,3.07-8.66,15.61-21.06,20.86-26a16.72,16.72,0,0,1,11.77-4.72,20.6,20.6,0,0,1,6.18,1c9.2,3,22.22,9.76,36.74,19.09V164c-14.47-9.29-27.46-16.06-36.65-19a20.87,20.87,0,0,0-6.27-1,17,17,0,0,0-12,4.81c-5.26,4.94-17.84,17.39-20.93,26.11-1.76,5,3.23,15.7,7.63,25.17C387.27,211.8,392.9,223.9,394,238c.64,8.29-1.08,15.88-2.47,22A8.08,8.08,0,0,0,392.86,265.13Z"/><path class="cls-1" d="M449.12,415.3c-1.61,2.64-3.44,5.63-3,8.89a6.48,6.48,0,0,0,3.89,5.57v-.33a6.15,6.15,0,0,1-3.59-5.28c-.42-3.15,1.37-6.09,3-8.69l.3-.49c.11-.19.22-.41.33-.61v-.62c-.19.36-.38.73-.59,1.07Z"/><path class="cls-1" d="M318.8,15.52c8.63,5.42,18.69,8.06,30.76,8.06,11.1,0,22.72-2.19,33.95-4.3,10.94-2.06,22.25-4.18,32.76-4.18,10.66,0,19.49,2.21,27,6.76l4.13,2.5L450,26v-.82l-2.25-1.37-4.12-2.5c-7.63-4.62-16.58-6.86-27.37-6.86-10.58,0-21.92,2.13-32.89,4.19-11.2,2.11-22.79,4.29-33.82,4.29-11.93,0-21.87-2.6-30.38-8-5.72-3.59-8.48-7.37-8.21-11.22A8.92,8.92,0,0,1,312.15,0h-.78a9.38,9.38,0,0,0-1.1,3.65C310,7.79,312.85,11.78,318.8,15.52Z"/><path class="cls-1" d="M411.68,256.07c2.28,1.25,5.4,1.78,8.43,2.29a39.37,39.37,0,0,1,6.43,1.46,40.1,40.1,0,0,1,3.9,1.76c2.86,1.41,6.11,3,9.08,3a8.13,8.13,0,0,0,1.63-.17l.41-.11c4.24-1.26,6.5-6.58,8.45-11.46v-.75c-2,5-4.22,10.63-8.5,11.9l-.38.1a6.87,6.87,0,0,1-1.57.17c-2.89,0-6.11-1.58-8.95-3a40.77,40.77,0,0,0-3.93-1.78A38.7,38.7,0,0,0,420.2,258c-3-.51-6.1-1-8.33-2.26-4.94-2.71-4.43-7.67-3.88-12.92a35.8,35.8,0,0,0,.28-6.12c-1.29-16.64-7.47-29.93-13.45-42.78a22.3,22.3,0,0,1-.56-18,25.29,25.29,0,0,1,14.65-13.85,18.37,18.37,0,0,1,6.52-1.2c9.65,0,18.71,7.4,26.7,13.92,2.27,1.85,4.41,3.6,6.46,5.09L450,181v-.37l-1.29-.94c-2-1.49-4.17-3.23-6.44-5.08-8-6.56-17.13-14-26.89-14a18.76,18.76,0,0,0-6.63,1.22,25.57,25.57,0,0,0-14.82,14,22.63,22.63,0,0,0,.57,18.24c6,12.82,12.14,26.09,13.42,42.67a35.18,35.18,0,0,1-.28,6.07C407.12,248,406.57,253.26,411.68,256.07Z"/><path class="cls-1" d="M414.06,50c-8.41,0-17.36,1.53-26.84,3.15-10.67,1.82-21.71,3.7-33.46,3.7h-2.5a60.9,60.9,0,0,1-10.59-1.36,37.82,37.82,0,0,0-7.11-1c-5.19,0-9,2.74-13.18,9.44a63.26,63.26,0,0,0-4.9,10.84c-2.51,6.61-5.1,13.44-10.84,17.49-2,1.4-5.75,2.48-9.75,3.62-7,2-14.92,4.26-16,9-1.34,5.91,10.81,14,17.34,18.36l3,2c7.65,5.62,14,9.36,20,9.36a14.16,14.16,0,0,0,2.43-.21c4.81-.87,9.17-4.26,13.73-10.69a101.33,101.33,0,0,1,54.25-38.89A70.5,70.5,0,0,1,409,82c17.25,0,30,7,41,14.73v-.37c-11-7.74-23.75-14.66-41-14.66a70.9,70.9,0,0,0-19.47,2.88,101.56,101.56,0,0,0-54.42,39c-4.51,6.36-8.81,9.71-13.53,10.56a13.59,13.59,0,0,1-2.38.21c-5.94,0-12.23-3.72-19.84-9.3-.69-.51-1.74-1.21-3-2-6.47-4.31-18.52-12.33-17.22-18,1-4.55,8.87-6.78,15.78-8.75,4-1.15,7.83-2.24,9.84-3.66,5.81-4.1,8.42-11,11-17.64a64.47,64.47,0,0,1,4.87-10.78c4.11-6.6,7.86-9.3,12.93-9.3a38,38,0,0,1,7.05,1,60.64,60.64,0,0,0,10.65,1.37h2.5c11.78,0,22.83-1.88,33.52-3.71,9.46-1.61,18.39-3.14,26.78-3.14a50.52,50.52,0,0,1,14,1.8,129.47,129.47,0,0,1,22,9v-.34A127.86,127.86,0,0,0,428.14,52,50.43,50.43,0,0,0,414.06,50Z"/><path class="cls-1" d="M405.21,261.46c2,.51,4,1,6,1.42,10.46,2.43,19.49,4.52,28.52,12.69l.18.17c2.07,1.88,3.71,2.79,5,2.79a2.25,2.25,0,0,0,.58-.07c2-.45,2.94-3.19,4-6.72.16-.54.34-1.09.52-1.63v-1c-.28.84-.55,1.69-.81,2.54-1.05,3.43-2,6.09-3.79,6.51-1.3.31-3-.56-5.33-2.66l-.18-.16c-9.09-8.23-18.15-10.33-28.65-12.76-1.93-.45-3.93-.91-6-1.42-7.34-1.84-6.1-8.74-4.9-15.41a35.31,35.31,0,0,0,.87-8.45c-1.19-15.37-7.1-28.08-12.82-40.37-.68-1.47-1.41-2.91-2.12-4.3-3.68-7.2-6.85-13.43-2.31-21.09,3.41-5.76,8.52-10.48,13.47-15,.89-.82,1.78-1.64,2.65-2.46a10.86,10.86,0,0,1,7.72-2.7c12.32,0,31.27,13.11,42.17,21V172c-11-7.95-29.8-21-42.14-21a11.2,11.2,0,0,0-7.93,2.78c-.87.82-1.76,1.64-2.65,2.46-5,4.58-10.09,9.31-13.52,15.11-4.62,7.8-1.26,14.4,2.3,21.38.71,1.39,1.44,2.82,2.12,4.29,5.71,12.26,11.61,24.95,12.8,40.27a35.74,35.74,0,0,1-.87,8.37C398.87,252.51,397.6,259.55,405.21,261.46Z"/><path class="cls-1" d="M194.76,405.47c-2.53,3.81-5.67,8.56-4.59,11.84a5,5,0,0,0,3.32,3,3.31,3.31,0,0,0,1.08.18c3.87,0,10-6,15.38-11.23,3.44-3.35,6.68-6.51,8.63-7.4,9.33-4.23,22.18-6.24,33.52-8,4.48-.7,8.7-1.37,12.61-2.13a134.39,134.39,0,0,1,25.54-2.63c26.33,0,48.45,9.48,65.73,28.17,1.93,2.1,4.75,3.16,8.37,3.16,11.28,0,30.63-11,44.26-31.33,8.15-12.17,20-37.06,7.68-67-4.94-12-12.27-17.56-23.07-17.56-8.23,0-17.61,3-28.47,6.52-13.36,4.31-28.51,9.19-44.8,9.19a74,74,0,0,1-35.63-8.95c-34.79-18.55-35.81-52.41-32.8-79.82,1.16-10.67-.73-19.11-5.49-24.41a17.21,17.21,0,0,0-13.23-5.73c-10,0-22.57,7.8-27.09,22.69-4.25,14,5.83,26.77,17.51,41.53,13.16,16.64,28.08,35.5,25.19,60.67-1.44,12.48-6,24.45-12.19,32-4.7,5.75-8.85,6.26-13.25,6.8-3.36.42-6.83.84-10.9,3.43-3.11,2-4.08,5.32-5.12,8.88a22.3,22.3,0,0,1-2.94,7.05c-.82,1.14-2.25,1.39-3.76,1.65-2,.35-4.24.74-5.44,3.31-.83,1.79.27,3.9,1.33,5.94.88,1.7,1.8,3.46,1.53,4.92C197.45,401.42,196.2,403.3,194.76,405.47Zm1.89-10.41c-1-2-2-3.89-1.32-5.43,1.07-2.29,3.08-2.64,5-3,1.56-.27,3.17-.55,4.13-1.88a23.17,23.17,0,0,0,3-7.23c1-3.45,1.94-6.7,4.87-8.56,4-2.51,7.36-2.93,10.66-3.34,4.51-.55,8.78-1.08,13.62-7,6.27-7.66,10.87-19.75,12.32-32.33,2.92-25.41-12.08-44.37-25.31-61.1-11.58-14.63-21.57-27.27-17.41-41,4.44-14.63,16.71-22.28,26.54-22.28a16.66,16.66,0,0,1,12.8,5.53c4.65,5.18,6.49,13.47,5.34,24-3,27.6-2,61.68,33.11,80.4a74.51,74.51,0,0,0,35.9,9c16.38,0,31.58-4.89,45-9.21,10.81-3.49,20.15-6.5,28.29-6.5,10.68,0,17.63,5.31,22.53,17.21,12.21,29.64.47,54.33-7.62,66.41-13,19.45-32.49,31.07-43.78,31.07-3.45,0-6.13-1-7.95-3C339,398,316.75,388.49,290.25,388.49a134,134,0,0,0-25.65,2.63c-3.89.77-8.12,1.43-12.59,2.13-11.38,1.78-24.27,3.8-33.67,8.06-2,.92-5.17,4-8.79,7.51-5.32,5.19-11.35,11.06-15,11.06a2.48,2.48,0,0,1-.89-.14,4.37,4.37,0,0,1-3-2.61c-1-3,2.06-7.63,4.52-11.34,1.48-2.23,2.75-4.15,3-5.44C198.54,398.7,197.58,396.85,196.65,395.06Z"/><path class="cls-1" d="M132.68,407.12c4.51-4.08,11.65-7.65,19.91-11.79,5.78-2.9,13.53-10,13.07-15.8-.25-3.18-2.81-5.55-7.59-7.06a20.93,20.93,0,0,0-6.29-.88c-6.12,0-13,2-19.1,3.83-2.78.82-5.4,1.59-7.8,2.13-20.12,4.57-32.27,7.33-43.15,7.33-9.64,0-18.09-2.16-29.17-7.45A242.65,242.65,0,0,1,28,363.7c-9.14-5.65-13.4-8.16-18.81-8.16A30.68,30.68,0,0,0,0,357.26v.52A30.68,30.68,0,0,1,9.15,356c5.27,0,9.49,2.48,18.55,8.09a242.23,242.23,0,0,0,24.64,13.75c11.15,5.33,19.67,7.5,29.39,7.5,10.94,0,23.1-2.76,43.26-7.34,2.41-.55,5-1.32,7.83-2.14,6.05-1.79,12.91-3.81,19-3.81a20.25,20.25,0,0,1,6.14.86c4.57,1.44,7,3.67,7.24,6.62.44,5.59-7.14,12.48-12.79,15.31-8.3,4.16-15.47,7.75-20,11.87C118.59,419.19,120.8,435.43,125,450h.52C121.34,435.53,119.09,419.4,132.68,407.12Z"/><path class="cls-1" d="M436.45,337.22a11.42,11.42,0,0,0,5.88,1.27,26.68,26.68,0,0,0,7.68-1.22v-.74a26,26,0,0,1-7.68,1.26,10.92,10.92,0,0,1-5.5-1.16c-5.87-3.75-8.47-10.38-11.22-17.39-2.37-6.05-4.82-12.31-9.59-16.72v-.21h-.21c-5.47-4.83-12.85-7.18-22.55-7.18-9.46,0-19.41,2.27-27.4,4.1-5.47,1.24-10.18,2.32-13.22,2.32-1.78,0-2.87-.37-3.32-1.12-.59-1-.14-2.89,1.34-5.6,6.91-12.61,20.86-42.69,19.9-55.14-.76-9.82-5.48-20-10.05-29.78-6.62-14.19-13.45-28.9-8.5-42.9,5.68-16,30.69-44.63,48.49-47.06a26.47,26.47,0,0,1,3.33-.21c11.57,0,28.51,6.9,46.16,16.89v-.75c-17.66-10-34.58-16.84-46.16-16.84a24.59,24.59,0,0,0-3.43.22c-18,2.46-43.32,31.35-49,47.51-5.07,14.3,1.83,29.12,8.5,43.46,4.54,9.75,9.23,19.84,10,29.53.86,11.1-11.31,39.24-19.81,54.76-1.66,3-2.08,5-1.33,6.29.59,1,1.87,1.46,3.92,1.46,3.12,0,7.87-1.08,13.37-2.34,8-1.82,17.87-4.08,27.25-4.08,9.58,0,16.84,2.32,22.19,7.1h0c4.72,4.31,7.16,10.53,9.52,16.56C427.75,326.62,430.39,333.35,436.45,337.22Z"/><path class="cls-1" d="M430.62,382.88c-2.65,6-5.14,11.71-8.31,16.63-18.43,28.67-39,33.5-60.73,38.61-1.66.39-3.4.76-5.08,1.12-7.25,1.54-14.74,3.14-20.85,7.1a20.06,20.06,0,0,0-4.39,3.67h.66a20.48,20.48,0,0,1,4-3.25c6-3.91,13.48-5.5,20.68-7,1.69-.36,3.43-.73,5.09-1.12,21.86-5.14,42.5-10,61-38.83,3.19-4.95,5.69-10.66,8.35-16.72,4.21-9.59,9-20.47,15.58-24.11,1.18-.44,2.29-.83,3.35-1.17v-.52c-1.13.36-2.31.77-3.55,1.24C439.68,362.23,434.87,373.19,430.62,382.88Z"/><path class="cls-1" d="M326.66,439.16c11.79-5.26,22.45-7.76,32.76-10.19,20.72-4.87,38.61-9.07,55-34.54,2.76-4.29,5.11-9.65,7.6-15.33,5.2-11.86,10.58-24.12,20.57-29.18a69.43,69.43,0,0,1,7.43-2.45v-.72a70.23,70.23,0,0,0-7.75,2.55c-10.21,5.17-15.64,17.55-20.89,29.52-2.48,5.65-4.82,11-7.55,15.23-16.23,25.23-34,29.41-54.56,34.24-10.34,2.43-21,5-32.89,10.23-7.71,3.44-12.86,7.42-15,11.49h.78C314.3,446.2,319.28,442.45,326.66,439.16Z"/><path class="cls-1" d="M329,415.24c-1.86-5.86-10-10.24-24.12-13a148.5,148.5,0,0,0-28.3-2.75,153.84,153.84,0,0,0-41.85,5.91c-1.88.53-3.77,1.11-5.61,1.72-23.93,7.95-37.74,21.18-43.94,42.9h.74c6.17-21.36,19.82-34.4,43.42-42.23,1.83-.61,3.71-1.19,5.58-1.71a152.9,152.9,0,0,1,41.66-5.89,146.34,146.34,0,0,1,28.17,2.74c13.87,2.72,21.81,6.93,23.58,12.53,1.36,4.29-.89,9.52-6.68,15.56-6,6.24-12,12.55-17.48,19h.92c5.33-6.28,11.23-12.43,17.07-18.51C328.1,425.26,330.41,419.79,329,415.24Z"/><path class="cls-1" d="M273.49,359.61a2.61,2.61,0,0,0,1.31.34c1.78,0,3.52-1.73,5.06-3.26a11.4,11.4,0,0,1,2.43-2.06,5.92,5.92,0,0,1,2.57-.64,9.24,9.24,0,0,1,4.5,1.64c.56.31,1.14.64,1.76.94a9.9,9.9,0,0,0,4.46,1.1A18.39,18.39,0,0,0,300,357a21.76,21.76,0,0,1,5-.82h.24c3.8,0,7.28,2,10.64,3.87s6.82,3.85,10.58,3.85a11.57,11.57,0,0,0,5.31-1.33,19,19,0,0,0,3.44-2.39c1.55-1.28,2.89-2.38,5.15-2.38a9.27,9.27,0,0,1,2.16.28c6.42,1.51,9.24,7.42,12,13.13a45.14,45.14,0,0,0,4.27,7.65c3.35,4.43,7.67,6.87,12.17,6.87h.23c4.51-.08,8.85-2.56,12.2-7,4.55-6,12.81-25.6,9.39-35.35A8,8,0,0,0,387,338a11.75,11.75,0,0,0-2.83-.37c-2.92,0-5.11,1.31-7.64,2.82-.57.34-1.15.69-1.77,1-5.13,2.9-10.22,3.5-15.6,4.14-2.11.25-4.3.51-6.51.91a37.75,37.75,0,0,0-6.82,2.14c-2.82,1.1-5.48,2.13-8.41,2.13a13.2,13.2,0,0,1-5.91-1.46c-4.12-2-8.61-3.9-13.57-3.9A20.58,20.58,0,0,0,313,346l-2.24.56a34.2,34.2,0,0,1-8.33,1.42,15,15,0,0,1-6.41-1.42l-.88-.4c-3.78-1.75-7.69-3.56-11.68-3.56a12.62,12.62,0,0,0-6.24,1.64c-2.5,1.39-5.85,7.23-5.84,11.31A4.35,4.35,0,0,0,273.49,359.61Zm4-15a12,12,0,0,1,6-1.58c3.88,0,7.74,1.79,11.47,3.51l.88.41a15.74,15.74,0,0,0,6.62,1.46,35.17,35.17,0,0,0,8.45-1.43l2.24-.56a20.49,20.49,0,0,1,4.81-.58c4.85,0,9.28,1.85,13.35,3.85a13.78,13.78,0,0,0,6.13,1.51c3,0,5.73-1.05,8.59-2.16a37,37,0,0,1,6.73-2.12c2.2-.4,4.37-.66,6.48-.9,5.43-.65,10.57-1.25,15.78-4.2l1.79-1c2.47-1.48,4.6-2.75,7.38-2.75a11.18,11.18,0,0,1,2.7.36,7.47,7.47,0,0,1,5.44,5.09c3.37,9.59-4.82,28.94-9.32,34.89-3.26,4.3-7.45,6.71-11.81,6.79H371c-4.34,0-8.52-2.37-11.77-6.67A44.47,44.47,0,0,1,355,371c-2.78-5.81-5.66-11.83-12.32-13.4a10.16,10.16,0,0,0-2.27-.29c-2.44,0-3.84,1.16-5.47,2.49a16.87,16.87,0,0,1-3.35,2.33,11,11,0,0,1-5.08,1.28c-3.63,0-6.89-1.84-10.33-3.79s-7-3.93-10.89-3.93H305a22.25,22.25,0,0,0-5.13.83,17.88,17.88,0,0,1-4.29.7,9.08,9.08,0,0,1-4.24-1.05c-.61-.3-1.18-.62-1.74-.93a9.78,9.78,0,0,0-4.74-1.7,6.38,6.38,0,0,0-2.78.69,11.52,11.52,0,0,0-2.57,2.15c-1.47,1.46-3.14,3.12-4.71,3.12a2.25,2.25,0,0,1-1.07-.28,3.82,3.82,0,0,1-1.85-3.66c0-4.15,3.47-9.71,5.58-10.88Z"/><path class="cls-1" d="M209,395a14.67,14.67,0,0,0,3.24.26c3.05,0,14.34-.45,31.94-6.27a158.83,158.83,0,0,1,48.47-7.54c27.22,0,45.31,4.08,68.6,26.38a9.17,9.17,0,0,0,6.58,2.38c10.13,0,25.44-11,34.86-25.09,7.36-11,18.05-33.43,7-60.26-4.76-11.54-10.73-13.14-16.47-13.14-7.1,0-16,2.86-26.28,6.18-13.86,4.47-29.57,9.53-47,9.53a80.93,80.93,0,0,1-39-9.78c-39-20.8-39.53-59.56-36.54-86.9.93-8.47-.39-15.17-3.7-18.87a10.19,10.19,0,0,0-7.92-3.35c-7.41,0-16.75,6.06-20.26,17.62-3.17,10.46,5.84,21.84,16.27,35C242.14,278,258.73,299,255.5,327a73.06,73.06,0,0,1-6.39,22.75A87,87,0,0,1,228.41,378a105.2,105.2,0,0,1-15.29,11c-3.73,2.32-6,3.72-5.82,4.78C207.37,394.33,207.91,394.68,209,395Zm4.29-5.63a106.54,106.54,0,0,0,15.33-11A87.63,87.63,0,0,0,249.41,350a73.35,73.35,0,0,0,6.41-22.84C259,298.87,242.41,277.84,229,261c-10.38-13.12-19.34-24.45-16.22-34.75,3.47-11.43,12.67-17.41,20-17.41a9.94,9.94,0,0,1,7.7,3.25c3.25,3.64,4.54,10.25,3.62,18.64-3,27.42-2.47,66.31,36.7,87.2a81.25,81.25,0,0,0,39.13,9.82c17.47,0,33.2-5.08,47.1-9.56,10.26-3.3,19.11-6.16,26.17-6.16,5.64,0,11.5,1.57,16.19,13,11,26.7.34,49-7,60-9.22,13.76-24.74,24.95-34.61,24.95a8.85,8.85,0,0,1-6.37-2.3C350.13,396.82,339.62,390,328.36,386c-9.7-3.39-20.39-4.84-35.75-4.84a159.12,159.12,0,0,0-48.56,7.56c-17.57,5.8-28.82,6.25-31.85,6.25a14.64,14.64,0,0,1-3.17-.25c-.92-.24-1.41-.53-1.46-.87-.1-.92,2.33-2.44,5.71-4.53Z"/><path class="cls-1" d="M232.8,215.39c-5.36,0-11.25,5.43-13.18,10.29-1.28,3.23-.31,8.75,2.6,14.76,2.75,5.67,6.4,10,9.1,10.84a4.64,4.64,0,0,0,1.23.19,4.06,4.06,0,0,0,1.34-.23c3.48-1.22,3.4-3.35,3.23-8a77,77,0,0,1,.34-12.24c.8-7.27-.34-12.81-1.88-14.52A3.26,3.26,0,0,0,232.8,215.39ZM237,230.92a77.86,77.86,0,0,0-.34,12.31c.17,4.69.24,6.44-2.9,7.53a3.47,3.47,0,0,1-2.25,0c-2.58-.77-6.11-5-8.8-10.58-2.85-5.89-3.82-11.25-2.59-14.35,1.87-4.72,7.56-10,12.72-10a2.87,2.87,0,0,1,2.41.89C236.67,218.42,237.74,223.8,237,230.92Z"/><path class="cls-1" d="M353.85,360.31a19.94,19.94,0,0,1,2.54,1.25l1.07.59a59.71,59.71,0,0,1,10,6.5,5.84,5.84,0,0,0,3.42,1.71c1.38,0,2.18-1.16,2.82-2.25,2.42-4.13,3.27-7.31,4.26-12.88a2.81,2.81,0,0,0-.42-2.32c-.72-.86-2.15-1-4.26-.43-6.34,1.76-10.61,2.57-16,3.59l-2.95.56a2.22,2.22,0,0,0-1.91,1.79C352.35,358.8,352.42,359.73,353.85,360.31Zm.56-3.11c1-.2,2-.39,3-.56,5.42-1,9.71-1.84,16.07-3.6a7.54,7.54,0,0,1,2-.33,2,2,0,0,1,1.62.57,2.36,2.36,0,0,1,.3,1.85c-1,5.5-1.82,8.64-4.2,12.68-.69,1.19-1.36,2-2.32,2a5.38,5.38,0,0,1-3.05-1.58,59.42,59.42,0,0,0-10.09-6.57l-1.06-.58a20.28,20.28,0,0,0-2.6-1.29c-.76-.3-1.16-.77-1.11-1.3A1.68,1.68,0,0,1,354.41,357.2Z"/><path class="cls-1" d="M262,370.84a30.94,30.94,0,0,0,3.47-.23,305.43,305.43,0,0,1,30.69-1.7,151.25,151.25,0,0,1,16.07.75c23,2.47,42.89,13.44,52.41,23.2a8.44,8.44,0,0,0,6.22,2.71c5.33,0,11.89-4.63,18-12.72,10.72-14.16,14-41.26,8.65-51.94-1.41-2.83-3.38-4.33-5.7-4.33h-.59c-4.2.43-10,2.14-17.42,4.31-13.83,4-32.77,9.61-53.31,9.94-17.55.29-37.61-6.66-44.43-10a12.2,12.2,0,0,0-4.68-1.58c-2,0-2.12,1.94-2.27,5.14a37.6,37.6,0,0,1-1.51,10,127.81,127.81,0,0,1-6.69,16.74c-2.07,4.44-3.32,7.13-2.44,8.52C259,370.5,260.07,370.84,262,370.84Zm-.81-9.51a126.46,126.46,0,0,0,6.7-16.78,37.48,37.48,0,0,0,1.53-10.09c.15-3.13.22-4.86,2-4.86a12.23,12.23,0,0,1,4.54,1.54c6.72,3.28,26.19,10,43.54,10h1c20.58-.33,39.55-5.89,53.39-9.95,7.38-2.17,13.2-3.87,17.38-4.3,2.48-.25,4.49,1.14,6,4.13,5.27,10.61,2,37.55-8.62,51.63-6.06,8-12.54,12.6-17.77,12.6a8.13,8.13,0,0,1-6-2.61c-9.56-9.81-29.53-20.82-52.59-23.3a154.71,154.71,0,0,0-16.11-.75,306.22,306.22,0,0,0-30.73,1.7,30.24,30.24,0,0,1-3.43.23c-1.8,0-2.84-.31-3.26-1-.82-1.2.4-3.83,2.43-8.19Z"/><path class="cls-1" d="M239.64,382.3a10.74,10.74,0,0,0,3.36-.67c14-4.86,30.24-7.22,49.64-7.22,24.17,0,48.12,2.22,75.34,29a4.16,4.16,0,0,0,3,1.16h0c7.61,0,21.67-14.58,25.84-23.37.38-.8.79-1.65,1.23-2.54,5.31-10.89,14.19-29.11,5.11-51.14-3.62-8.81-7-8.81-10-8.81-6,0-14.4,2.71-24.13,5.84-14.35,4.63-30.62,9.87-49.14,9.87-15.85,0-28.68-2.91-41.59-9.44-2-1-3.92-2.11-5.62-3.09-3.4-2-6.09-3.49-7.81-3.49-1.35,0-2,.94-2,2.88a14.71,14.71,0,0,0,.11,1.49c1.85,19-5.5,36.7-21.84,52.66-2.86,2.79-4.07,4.79-3.59,6C237.82,382,238.53,382.3,239.64,382.3Zm1.72-6.68c10.52-10.27,17.4-21.41,20.48-33.12a54.11,54.11,0,0,0,1.46-19.79,14.13,14.13,0,0,1-.11-1.46c0-2.31,1-2.58,1.74-2.58,1.64,0,4.43,1.6,7.66,3.45,1.7,1,3.63,2.08,5.64,3.1,12.95,6.55,25.82,9.48,41.72,9.48,18.57,0,34.86-5.26,49.24-9.89,9.7-3.13,18.07-5.83,24-5.83,2.89,0,6.17,0,9.72,8.62,9,21.91.17,40.06-5.11,50.9-.44.89-.85,1.74-1.23,2.54-4.14,8.73-18.06,23.2-25.57,23.2a3.89,3.89,0,0,1-2.84-1.07c-12.65-12.43-25.73-20.57-40-24.89-12.72-3.85-24.53-4.17-35.54-4.17-19.43,0-35.71,2.37-49.74,7.24a10.44,10.44,0,0,1-3.26.65c-.68,0-1.54-.13-1.8-.76s-.07-2.09,3.54-5.62Z"/><path class="cls-1" d="M185.89,0h-.74a101.32,101.32,0,0,0-3.25,17.78c-1.11,11.27-2.09,26,.22,40.28,1.68,10.38,5.06,15,11,15h0c3.76,0,8.13-1.82,13.19-3.93a95.91,95.91,0,0,1,11-4.13l1.12-.3c11.07-3,23.55-3.39,36.79-1.25A102.08,102.08,0,0,1,265.86,66c5.08,1.41,10.33,2.86,15.66,3.09,2.89.13,5-.16,6.4-.89,4.26-2.12,2.19-7.41,0-13-1.29-3.31-2.63-6.74-2.85-9.81C283.9,29.08,293,14.21,305.07,0h-.92C292.2,14.18,283.2,29.06,284.38,45.45c.22,3.18,1.58,6.65,2.9,10,2.16,5.53,4,10.3.34,12.13a12.78,12.78,0,0,1-6.06.82c-5.25-.23-10.46-1.67-15.5-3.06a101,101,0,0,0-10.71-2.55c-13.34-2.16-25.92-1.73-37.08,1.26l-1.13.31A97.75,97.75,0,0,0,206,68.49c-5,2.08-9.3,3.88-12.92,3.88-5.48,0-8.65-4.44-10.27-14.41-2.29-14.16-1.32-28.87-.21-40.1A99.28,99.28,0,0,1,185.89,0Z"/><path class="cls-1" d="M176.92,279.85a2.81,2.81,0,0,0-1.83-.9c-1.4,0-2.38,1.78-3.86,4.48A48.29,48.29,0,0,1,164,293.91l-1.07,1.1c-4.17,4.42-6.08,6.44-5.61,7.52.21.5.86.72,2.09.72a42.54,42.54,0,0,0,5.16-.52,24.61,24.61,0,0,1,3.21-.22c8.67,0,15.9,4.86,21.18,8.41,3.09,2.08,5.53,3.73,7.28,3.73a2.19,2.19,0,0,0,1.78-.88C203.51,306.7,184.14,286.4,176.92,279.85Zm20.66,33.65a1.69,1.69,0,0,1-1.39.68c-1.6,0-4-1.61-7-3.64-5.33-3.59-12.64-8.5-21.46-8.5a24,24,0,0,0-3.28.23,39.35,39.35,0,0,1-5.09.51c-1,0-1.51-.14-1.63-.41-.34-.78,2-3.25,5.51-7l1.07-1.13a48.66,48.66,0,0,0,7.36-10.58c1.4-2.54,2.32-4.22,3.42-4.22a2.42,2.42,0,0,1,1.5.78C185.55,288.36,202.49,307.19,197.58,313.5Z"/><path class="cls-1" d="M177.06,288.19c-3.5,0-8,5.52-8,8.14a1.63,1.63,0,0,0,1.52,1.73,1.58,1.58,0,0,0,.31,0c5.15.1,10.6,3.37,14.58,5.75,2.36,1.42,4.06,2.44,5.07,2.44h0a1,1,0,0,0,.77-.3,1.5,1.5,0,0,0,.28-1.16c-.37-4.81-9.5-14.44-13.2-16.29A2.79,2.79,0,0,0,177.06,288.19Zm13.8,16.64c0,.42,0,.58-.1.63s-.07.08-.25.08h0c-.81,0-2.62-1.09-4.71-2.34-4-2.43-9.59-5.75-14.93-5.84-.8,0-1.15-.33-1.14-1,0-2.34,4.21-7.45,7.33-7.45a2,2,0,0,1,1,.23C182,291.11,190.53,300.47,190.86,304.83Z"/><path class="cls-1" d="M164.69,197.49h0c.86,0,1.54-1.22,2.22-3.94,2.51-10.21,10.8-23.72,23.67-30.91s21.72-9.16,26.38-10.17c2.32-.5,3.48-.76,3.76-1.37a.9.9,0,0,0-.1-.83c-.9-1.64-17-10.67-40.26-12.55l-1-.08c-2.09-.17-3.9-.32-5.63-.32-6,0-10.94,1.7-22.34,11.33-1.8,1.52-3.64,2.93-5.42,4.29-5.51,4.23-10.27,7.88-10,12,.24,3.18,3.38,6.34,9.91,9.93,7.22,4,11.62,11.88,14.53,17.1C162.32,195.3,163.54,197.49,164.69,197.49Zm-18.61-22.86c-6.34-3.5-9.53-6.67-9.75-9.69-.3-4,4.4-7.59,9.84-11.76,1.79-1.37,3.63-2.78,5.44-4.31,11.32-9.56,16.16-11.25,22.14-11.25,1.72,0,3.52.15,5.61.32l1,.08c22.68,1.83,39.16,10.83,40,12.39.18.32.14.48.1.57-.22.47-1.47.74-3.55,1.2-4.68,1-13.4,2.91-26.46,10.2s-21.3,20.83-23.83,31.09c-.61,2.51-1.24,3.72-1.92,3.72h0c-1,0-2.29-2.36-4-5.34-2.89-5.26-7.32-13.2-14.62-17.22Z"/><path class="cls-1" d="M166.58,214.66c.87,0,1.47-1,1.89-3.28,2.6-13.77,8.22-33.27,27-43.67a85.86,85.86,0,0,1,20.06-7.79,18,18,0,0,0,4.81-2.61c2.07-1.39,4.22-2.84,6.2-2.84a3.79,3.79,0,0,1,.67.06A6.38,6.38,0,0,1,230,156a4.77,4.77,0,0,0,2.93,1.36,3.87,3.87,0,0,0,1.38-.29,3.73,3.73,0,0,0,1.71-1.62,2.71,2.71,0,0,1,2.85-1.58c1.69.14,2.6,1.43,3.56,2.79a8,8,0,0,0,2.36,2.49A7.29,7.29,0,0,0,248,160a2,2,0,0,0,1.69-.63,1.88,1.88,0,0,0,.15-1.68c-.65-2.36-5.71-4.56-9.05-6-1-.43-1.85-.8-2.39-1.09-5-2.64-10-4.88-14.16-6.72-17.72-7.75-33.87-12.48-49.38-14.46a35.78,35.78,0,0,0-4.63-.33c-7.64,0-13.56,3.34-25.34,14.3-2.89,2.69-5.87,5-8.74,7.23-6.45,5-11.54,8.95-11.42,13.92.1,3.93,3.51,8.11,10.72,13.16,11.62,8.13,19.34,20.48,24.44,28.65C163,211.34,165.07,214.66,166.58,214.66Zm-31-37.26c-7.14-5-10.5-9.09-10.6-12.91-.11-4.82,4.92-8.73,11.3-13.68,2.88-2.24,5.86-4.55,8.76-7.25,11.72-10.9,17.6-14.22,25.14-14.22a35.17,35.17,0,0,1,4.59.33c15.48,2,31.61,6.7,49.3,14.44,4.2,1.84,9.16,4.07,14.14,6.7.55.3,1.41.67,2.41,1.1,3.29,1.44,8.27,3.61,8.88,5.83a1.58,1.58,0,0,1-.1,1.42,1.86,1.86,0,0,1-1.45.51,7,7,0,0,1-3-.8,7.59,7.59,0,0,1-2.26-2.39c-1-1.36-2-2.76-3.78-2.92a3,3,0,0,0-3.13,1.72,3.45,3.45,0,0,1-1.57,1.5,3.24,3.24,0,0,1-1.27.26,4.54,4.54,0,0,1-2.75-1.29,6.42,6.42,0,0,0-2.87-1.51,3.51,3.51,0,0,0-.72-.07c-2.08,0-4.26,1.47-6.37,2.89a17,17,0,0,1-4.71,2.57,87.13,87.13,0,0,0-20.14,7.81c-18.92,10.47-24.58,30.06-27.19,43.88-.38,2.05-.9,3-1.59,3-1.35,0-3.5-3.45-6.48-8.22C155,198,147.24,185.57,135.58,177.4Z"/><path class="cls-1" d="M203.52,340.14a21.52,21.52,0,0,0,16.42-12c2.86-5.93,4.41-16-4.47-30.23-3.81-6.11-8-12.29-12-18.26-11.5-17.07-22.36-33.2-26.85-49.38-5.07-18.3-1-33.4,12.82-47.51,12-12.22,27.78-19.23,43.39-19.23,11.73,0,22.2,4.13,29.47,11.62,8,8.24,12,20.28,11.55,34.84-.1,3.38-.26,6.87-.43,10.56-.61,13.14-1.29,28,.83,40.42,2.44,14.25,8.23,23,17.69,26.91A38.24,38.24,0,0,0,306.23,291,23.78,23.78,0,0,0,326,280.9c8.31-11.25,10.3-30.51,4.95-47.93-11.47-37.38-39-59.7-79.81-83.59-31-18.15-57.13-23.75-80.79-27.1a36.47,36.47,0,0,0-5-.38c-9.87,0-14.58,5-20.53,11.4a102.06,102.06,0,0,1-7.58,7.56,60.25,60.25,0,0,1-8.92,6.37c-4.17,2.57-7.77,4.78-11.73,10.7-7.86,11.75,2.66,19,13.79,26.59,5.89,4,12,8.2,15.23,13.14,20.48,31,12.22,64.13-2.35,84.76-4.16,5.89-10.24,11.46-16.68,17.36-7.87,7.21-16,14.66-20.66,23-2,3.58-2.57,6-1.74,7.43.61,1,2,1.55,4.11,1.55h0c3.84,0,9.94-1.59,17-3.44,9.91-2.58,22.24-5.8,33.14-5.8a35.5,35.5,0,0,1,14.71,2.74,53.78,53.78,0,0,1,10.58,6.94c5.34,4.16,10.39,8.09,17.53,8.09A22.4,22.4,0,0,0,203.52,340.14ZM173.24,325a35.28,35.28,0,0,0-14.83-2.76c-10.94,0-23.29,3.22-33.22,5.81-7,1.84-13.13,3.43-16.93,3.43h0c-2,0-3.3-.46-3.85-1.4-.78-1.32-.21-3.65,1.74-7.13,4.63-8.28,12.75-15.72,20.61-22.91,6.45-5.91,12.54-11.49,16.72-17.41A79.14,79.14,0,0,0,158,242.71c1.14-16-3-31.21-12.22-45.22-3.29-5-9.4-9.17-15.31-13.22-11-7.55-21.41-14.67-13.71-26.18,3.93-5.86,7.5-8.06,11.63-10.6a59.26,59.26,0,0,0,9-6.41A100.79,100.79,0,0,0,145,133.5c5.9-6.31,10.57-11.3,20.31-11.3a35.63,35.63,0,0,1,5,.38c23.63,3.34,49.75,8.94,80.67,27.06,40.71,23.85,68.24,46.13,79.69,83.41,5.32,17.34,3.35,36.5-4.91,47.67a23.47,23.47,0,0,1-19.48,10,37.92,37.92,0,0,1-14.16-3.09c-9.36-3.81-15.09-12.54-17.51-26.68-2.12-12.36-1.44-27.23-.83-40.35.17-3.7.33-7.19.43-10.58.44-14.63-3.58-26.75-11.63-35.05-7.33-7.55-17.87-11.71-29.69-11.71-15.69,0-31.58,7-43.6,19.32-7.34,7.5-11.88,15.23-13.86,23.65-1.77,7.52-1.46,15.42,1,24.15,4.5,16.23,15.37,32.37,26.89,49.47,4,6,8.18,12.14,12,18.25,8.81,14.13,7.28,24.08,4.45,29.94A20.26,20.26,0,0,1,201.29,340c-7,0-12-3.9-17.35-8A53.88,53.88,0,0,0,173.24,325Z"/><path class="cls-1" d="M210.08,327.73a11,11,0,0,0,4.56-7.93c1.2-9.83-7.52-24.18-15.36-33.47-9.77-11.6-19.47-24-24.21-36-.42-1.42-.78-2.86-1.06-4.32-1.52-7.11-4.08-19-7.77-19a2.1,2.1,0,0,0-1,.31c-1.53.91-2,2.7-1.38,5.48a41.78,41.78,0,0,0,2.62,7.19c1.05,2.45,2,4.56,2,5.76,0,3.08-1.48,4.44-2.87,5.76a7.46,7.46,0,0,0-2.62,3.94c-.52,2.38.46,4.17,1.41,5.9s1.79,3.25,1.5,5.38c-.53,3.9-12.91,18-23.83,30.43-9,10.29-16.84,19.18-16.7,20.88a.44.44,0,0,0,.14.3c.75.63,2.1.93,4.15.93h0a93.71,93.71,0,0,0,12.93-1.56c6.31-1,13.46-2.16,19.67-2.16,4.85,0,8.48.69,11.09,2.11,1.43.78,3,1.69,4.68,2.67,7.46,4.33,16.74,9.73,24.6,9.73A12.49,12.49,0,0,0,210.08,327.73Zm-36.67-10.37c-2.66-1.45-6.33-2.15-11.23-2.15-6.23,0-13.4,1.15-19.72,2.17a94.53,94.53,0,0,1-12.88,1.55h0c-2,0-3.27-.28-4-.86V318c-.13-1.58,8-10.84,16.63-20.66,10.95-12.47,23.35-26.6,23.89-30.59.31-2.23-.62-3.93-1.52-5.57s-1.88-3.41-1.39-5.69a7.17,7.17,0,0,1,2.53-3.78c1.44-1.36,2.93-2.77,3-6,0-1.26-.91-3.4-2-5.88a42.35,42.35,0,0,1-2.6-7.14c-.57-2.63-.17-4.31,1.25-5.15a1.72,1.72,0,0,1,.88-.27c3.45,0,6.07,12.23,7.48,18.8a44.21,44.21,0,0,0,1.06,4.41c4.76,12,14.48,24.43,24.26,36,7.8,9.25,16.48,23.5,15.29,33.24a10.73,10.73,0,0,1-4.44,7.73,12.15,12.15,0,0,1-7.35,2.23c-7.78,0-17-5.38-24.45-9.69C176.43,319,174.84,318.13,173.41,317.36Z"/><path class="cls-1" d="M206.66,315.18c.89-8.23-7.94-21.16-12.35-26.13a253.72,253.72,0,0,1-16.42-20.71c-3.49-4.79-5.41-7.43-6.65-7.43-.85,0-1.32,1.1-1.61,3.81-2.18,20.36-15.35,31.38-23.22,38-3.44,2.89-5.72,4.79-5.81,6.36a1.6,1.6,0,0,0,.47,1.24,4.7,4.7,0,0,0,3.59,1.12,44,44,0,0,0,7.22-1A66.85,66.85,0,0,1,164,309c5.82,0,10.51,1.45,14.36,4.44,5.4,4.2,13.41,8.68,19.67,8.68h0a9.5,9.5,0,0,0,5.76-1.71A7.13,7.13,0,0,0,206.66,315.18ZM198,321.81h0c-6.18,0-14.12-4.45-19.49-8.62-3.9-3-8.65-4.5-14.54-4.5a67.42,67.42,0,0,0-12.18,1.45,44.51,44.51,0,0,1-7.17,1,4.4,4.4,0,0,1-3.37-1,1.3,1.3,0,0,1-.39-1c.08-1.44,2.44-3.42,5.71-6.15,7.9-6.62,21.12-17.69,23.32-38.17.26-2.45.67-3.54,1.31-3.54,1.09,0,3.09,2.75,6.4,7.31a254.38,254.38,0,0,0,16.45,20.73c4.38,4.94,13.15,17.77,12.27,25.9a6.82,6.82,0,0,1-2.74,5A9.23,9.23,0,0,1,198,321.81Z"/><path class="cls-1" d="M292.1,232.9c-1,15.64,3.46,26.41,8,31.27,2.08,2.22,4.37,3.44,6.43,3.45h0c2.91,0,5.1-2.29,6.16-6.45,6.83-26.77-16.43-55-19.28-57.35-.83-.68-1.39-.77-1.76-.37-.67.73-.46,3.12-.08,7.46A140.41,140.41,0,0,1,292.1,232.9ZM292,203.79a.21.21,0,0,1,.17-.08c.14,0,.41.09.9.49,2.83,2.34,25.89,30.31,19.12,56.85-1,3.91-3,6.07-5.68,6.07h0c-1.92,0-4.08-1.17-6.06-3.3-4.48-4.78-8.9-15.4-7.88-30.89a141.43,141.43,0,0,0-.52-22.07C291.75,207.09,291.51,204.36,292,203.79Z"/><path class="cls-1" d="M414.06,57c-7.82,0-16.49,1.48-25.66,3-11,1.87-22.29,3.8-34.64,3.8H351.1l-2.18-.06c-1.87,0-3.63-.1-5.33-.1-10.64,0-17.22,2.17-21.57,13.61-2.74,7.23-5.85,15.42-13.32,20.7-2.11,1.5-4.22,2.78-6.09,3.9-4.32,2.61-7.73,4.67-7.86,7.52-.11,2.62,2.53,5.77,8.59,10.21,5.8,4.26,10.58,6.33,14.6,6.33H319c5.84-.54,9.76-5.37,14.72-11.48a113.92,113.92,0,0,1,7.8-8.92,107.44,107.44,0,0,1,46.15-27.39A77.33,77.33,0,0,1,409,75c17,0,30.14,6.15,41,13.27v-.36c-10.86-7.09-24-13.21-41-13.21a77.87,77.87,0,0,0-21.4,3.15,107.88,107.88,0,0,0-46.28,27.47,112.67,112.67,0,0,0-7.82,8.94c-4.92,6.06-8.8,10.84-14.52,11.37h-1.05c-3.95,0-8.67-2-14.43-6.27-6-4.38-8.57-7.45-8.46-10s3.48-4.71,7.72-7.27c1.87-1.13,4-2.41,6.11-3.91,7.54-5.34,10.66-13.58,13.42-20.85C326.58,66.14,333.09,64,343.59,64c1.7,0,3.46,0,5.32.1l2.18.06h2.67c12.37,0,23.72-1.94,34.69-3.81,9.16-1.56,17.81-3,25.61-3a43.93,43.93,0,0,1,12.07,1.53c7.75,2.2,15.69,5.83,23.88,10.12v-.34c-8.16-4.22-16.07-7.82-23.8-10A43.76,43.76,0,0,0,414.06,57Z"/><path class="cls-1" d="M284.36,232c-1.16,15.17,1.84,27.45,8.44,34.57,3.45,3.73,7.69,5.78,11.94,5.78h0c6.06,0,10.91-4.21,12.35-10.72,4.21-19-2.31-36.16-8.52-47.18-7.29-12.94-16.63-22.1-21.12-25.1-1.65-1.09-2.8-1.77-3.51-1.77a.8.8,0,0,0-.61.26c-.58.65-.34,2.51.13,6.19A173.45,173.45,0,0,1,284.36,232Zm-.81-44a.48.48,0,0,1,.39-.16c.63,0,1.79.69,3.34,1.72,10.15,6.77,37.11,37.62,29.51,72-1.41,6.38-6.14,10.49-12,10.49-4.16,0-8.33-2-11.72-5.68-6.55-7.06-9.51-19.26-8.36-34.35a172.47,172.47,0,0,0-.91-38C283.33,190.63,283.07,188.59,283.55,188Z"/><path class="cls-1" d="M278.61,233c-1.16,18.89,2.46,33.8,10.17,42,4,4.25,8.84,6.49,14,6.49h0c9.9,0,18.28-8,20.87-19.93,3.81-17.58.53-34.89-9.74-51.44-10.41-16.77-24.81-27.62-32.47-32.59-3.9-2.53-5.57-3.58-6.21-2.82s-.18,2.46.5,6.08C277.23,188.62,280.32,205,278.61,233Zm-3.14-58.09a.44.44,0,0,1,.36-.15c.81,0,2.56,1.14,5.46,3,25.52,16.57,50,47.26,42.07,83.72-2.55,11.78-10.82,19.69-20.57,19.69-5.09,0-9.86-2.21-13.79-6.39-7.66-8.14-11.24-23-10.09-41.78,1.71-28.07-1.38-44.43-2.87-52.28-.63-3.32-1-5.32-.57-5.84Z"/><path class="cls-1" d="M163.53,170.24c2.83,0,4.86-2.73,7-6.83,3.8-7.16,11.71-10.62,16-12.48,2.15-1,3-1.3,2.85-1.89s-.64-.71-3.58-.91c-8.86-.6-28.74,7.85-31,14.21a3.26,3.26,0,0,0,1.14,3.87c3.41,2.82,5.69,4,7.63,4Zm-8.11-7.66c2.09-5.81,20.57-13.78,29.42-13.78h.9a14.13,14.13,0,0,1,2.82.35,24.67,24.67,0,0,1-2.32,1.11c-4.34,1.89-12.4,5.42-16.3,12.8-2.46,4.64-4.26,6.45-6.41,6.45-1.76,0-3.91-1.16-7.19-3.87a2.57,2.57,0,0,1-.92-3.06Z"/><path class="cls-1" d="M172.23,169.88c6.81-12.41,19.26-16.74,29.34-19.13,1-.23,1.06-.72,1-1-.23-2-9.67-5.89-23.76-5.89-1.59,0-3.22,0-4.84.15-6.43.39-21.61,9.37-27.07,16-1.42,1.72-2.06,3.16-1.91,4.26.38,2.76,2.84,4,5.68,5.4,3,1.5,6.43,3.2,8.09,7.17,1,2.3,2.24,3.47,3.77,3.47C165.17,180.33,168.42,176.82,172.23,169.88Zm-13,6.78c-1.73-4.13-5.23-5.87-8.32-7.41-2.72-1.36-5.07-2.53-5.41-5-.13-.95.49-2.3,1.8-3.89,5.39-6.57,20.37-15.45,26.72-15.83,1.6-.1,3.22-.15,4.8-.15,13.85,0,23.08,3.83,23.27,5.45,0,.26-.39.4-.65.46-10.18,2.41-22.75,6.79-29.66,19.37-5.77,10.43-10,13-12.54,7Z"/><path class="cls-1" d="M303.8,255.64h0c.52,0,1-.37,1.37-1.09,1.95-3.66,1.91-16.29-3.25-24-.68-1-1.65-.86-2.38.4-1.94,3.34-2.75,14,2.53,23.22C302.63,255.15,303.21,255.64,303.8,255.64Zm-3.64-24.33c.25-.45.53-.71.74-.71s.36.22.44.36c5,7.36,5.05,19.82,3.22,23.26-.24.46-.51.72-.75.72s-.72-.41-1.12-1.1C297.61,244.93,298.34,234.44,300.16,231.31Z"/><path class="cls-1" d="M368.85,286.32c.71,1,2.46,1.47,5.83,1.47,2.1,0,4.62-.17,7.53-.37,3.6-.24,7.69-.51,11.91-.51,13.38,0,22.39,2.84,28.4,9,5.59,4.3,8.68,11.31,11.4,17.49,3.3,7.52,6.16,14,12.47,14a10.54,10.54,0,0,0,2.1-.22c.51-.11,1-.24,1.52-.4v-.52c-.56.18-1.11.32-1.62.43a9.64,9.64,0,0,1-2,.21c-6,0-8.78-6.35-12-13.71-2.75-6.24-5.86-13.31-11.52-17.67-6.09-6.2-15.22-9.09-28.74-9.09-4.24,0-8.33.27-11.94.52-2.91.19-5.41.36-7.5.36-3.11,0-4.83-.4-5.42-1.26a2,2,0,0,1,0-1.93c6.37-17,11.69-38.54,11.18-45.17-.9-11.61-6-22.58-10.94-33.18-6-13-11.74-25.23-8.12-35.45,5-14.2,28-38.85,40.5-40.55a16.65,16.65,0,0,1,2-.12c9.7,0,26.79,6.94,46.16,18.43v-.58c-19.35-11.44-36.43-18.35-46.16-18.35a14.16,14.16,0,0,0-2.06.13c-12.6,1.71-35.82,26.56-40.9,40.88-3.69,10.41,2.05,22.75,8.13,35.82,4.92,10.56,10,21.49,10.9,33,.45,5.81-4.32,26.71-11.14,45A2.49,2.49,0,0,0,368.85,286.32Z"/><path class="cls-1" d="M416.27,444.6c-.57,0-1.54.06-2.76.14-2.06.13-4.88.31-7.69.31-6.94,0-10.58-1.14-10.81-3.39-.35-3.39,7.7-8.43,13-11.76a48.42,48.42,0,0,0,4.8-3.22A101,101,0,0,0,431,405.14c3.61-5.62,6.27-11.67,9.08-18.08a35.08,35.08,0,0,1,9.87-13.3v-.37a35.31,35.31,0,0,0-10.14,13.55c-2.81,6.4-5.46,12.44-9.06,18a101.26,101.26,0,0,1-18.17,21.48,45.84,45.84,0,0,1-4.76,3.18c-5.71,3.58-13.54,8.47-13.17,12,.25,2.46,3.89,3.66,11.11,3.66,2.82,0,5.64-.18,7.71-.31,1.21-.08,2.18-.14,2.74-.14A74.41,74.41,0,0,1,444.61,450h.81A74.44,74.44,0,0,0,416.27,444.6Z"/><path class="cls-1" d="M223,28.62a22.4,22.4,0,0,0,4.75-.61c1.84-.41,3.58-.8,5.16-1,2.68-.36,5.27-.51,7.57-.64a15.85,15.85,0,0,0,7.22-2.16C257,18.76,260.91,7.63,262.15,3.1c.3-1.09.6-2.11.89-3.08h-.31c-.29,1-.58,1.94-.87,3-1.23,4.5-5.09,15.54-14.3,20.93a15.49,15.49,0,0,1-7.1,2.12c-2.29.13-4.89.28-7.58.64-1.59.22-3.34.6-5.19,1a21.66,21.66,0,0,1-4.68.6c-2.21,0-3.75-.57-4.71-1.74-1.42-1.72-1.62-4.82-.63-9.73l.16-.8c1.33-6.76,3.62-12,7.23-16h-.39c-3.55,4.08-5.81,9.27-7.14,16l-.16.8c-1,5-.78,8.18.7,10C219.11,28,220.72,28.62,223,28.62Z"/><path class="cls-1" d="M414.06,63.94c-7.23,0-15.62,1.43-24.5,3-11.24,1.92-22.87,3.9-35.8,3.9h-2.82l-2.21-.06c-1.81,0-3.53-.1-5.14-.1-14,0-14.7,7.7-15.44,15.86-.4,4.47-.81,9.09-3.28,13-.88,1.41-3.24,3.18-5.74,5.06-5.33,4-11.37,8.54-8.47,12.79a5.37,5.37,0,0,0,4.46,2.75,6.71,6.71,0,0,0,3-.83c4.73-2.44,9.78-9.65,13.84-15.45,2.31-3.3,4.3-6.14,5.39-6.79a6.69,6.69,0,0,1,3.51-.77h2.59a6.8,6.8,0,0,0,5-1.63c1.89-1.72,2.13-4,2.36-6.11s.4-3.78,1.69-5.32c3.9-4.66,17.58-7.92,26.63-10.07,2.67-.64,5-1.18,6.68-1.68A84.34,84.34,0,0,1,409,68.09c16.72,0,30.09,5.48,41,12V79.5c-10.92-6.52-24.29-12-41-12A85.21,85.21,0,0,0,385.65,71c-1.7.49-4,1-6.65,1.67-9.66,2.3-22.89,5.45-26.9,10.24-1.39,1.66-1.6,3.65-1.81,5.58-.23,2.16-.44,4.21-2.2,5.8a6.37,6.37,0,0,1-4.62,1.5h-2.59a7.18,7.18,0,0,0-3.77.84c-1.18.71-3.1,3.45-5.54,6.93-3.81,5.45-9,12.92-13.65,15.3-2.82,1.45-5.05.88-6.85-1.76-2.63-3.86,3.21-8.24,8.36-12.11,2.65-2,4.94-3.71,5.87-5.19,2.52-4,2.94-8.72,3.35-13.25.75-8.26,1.39-15.4,14.94-15.4,1.61,0,3.32,0,5.13.1l2.2.06h2.84c13,0,24.62-2,35.89-3.91,8.85-1.51,17.22-2.94,24.41-2.94a36.76,36.76,0,0,1,10.12,1.26C432.35,68,441,72.18,450,77v-.6c-9-4.75-17.55-8.86-25.69-11.19A37.39,37.39,0,0,0,414.06,63.94Z"/><path class="cls-1" d="M225,18.07c.77,1.49,2.42,2.25,4.93,2.25a17,17,0,0,0,2.13-.16c2.93-.39,5.67-.55,8.1-.69a9.27,9.27,0,0,0,4.13-1.23c5.4-3.16,11.8-12.47,12-18.23h-.5c-.22,5.53-6.58,14.77-11.77,17.8a8.16,8.16,0,0,1-2,.84,9,9,0,0,1-2,.32c-2.42.14-5.17.3-8.12.7-3.45.46-5.69-.16-6.55-1.83-1.16-2.27.22-6.63,3.62-11.4A21.24,21.24,0,0,1,236.66,0h-1a21.28,21.28,0,0,0-7,6.14C225,11.14,223.69,15.6,225,18.07Z"/><path class="cls-1" d="M384,273.29c1.86,2.68,5.79,3,11.23,3.39l1.82.15c1.72.14,3.52.2,5.42.26,8.84.31,18.86.65,27.91,8.89l.11.1c5,4.39,8,12.13,10.64,19s4.94,12.82,8.59,12.82H450v-.31a1.93,1.93,0,0,1-.34,0c-3.44,0-5.7-5.85-8.31-12.63s-5.65-14.63-10.72-19.08l-.11-.09c-9.13-8.32-19.21-8.66-28.1-9-1.9-.06-3.7-.12-5.41-.26l-1.82-.14c-5.36-.42-9.22-.71-11-3.27s-1.45-7,.77-14.7a55.93,55.93,0,0,0,2.33-20c-1-12.85-6.37-24.4-11.57-35.57-5.42-11.65-10.54-22.66-7.86-30.22,4.46-12.59,26-34.81,34.92-36a6.28,6.28,0,0,1,1.06-.06c7.45,0,24.3,6.2,46.16,19.58v-.35c-21.84-13.35-38.69-19.53-46.16-19.53a6.7,6.7,0,0,0-1.1.06c-9,1.23-30.68,23.57-35.17,36.22-2.72,7.67,2.43,18.74,7.89,30.46,5.18,11.1,10.54,22.61,11.54,35.41a55.68,55.68,0,0,1-2.32,19.92C382.41,266.28,382.19,270.76,384,273.29Z"/><path class="cls-1" d="M201.61,363.72c14.89-1.69,32.62-19.38,37.37-32.9,8.26-23.48-6.41-42.38-20.6-60.65-13.7-17.65-26.63-34.31-20.34-54.6,5.48-17.67,23.18-27.21,37.05-27.21,7.48,0,13.94,2.65,18.21,7.47,5.07,5.72,7.06,14.41,5.76,25.13-4.47,36.83-5.8,77.12,35.26,89A49.84,49.84,0,0,0,308.15,312c17.28,0,28.32-9.91,34.53-18.21C354.59,277.87,358.73,254,353,234.5c-4.88-16.56-14.49-32.62-29.36-49.1-22.12-24.5-52.23-45.57-92.07-64.4l-1.72-.82c-16.76-7.92-34.09-16.12-52.34-20.64-1.08-.27-2.28-.59-3.56-.93-5.64-1.49-12.65-3.36-18.67-3.36a18.4,18.4,0,0,0-6.2.92c-2.6.93-4.06,2.71-5.48,4.43a14.94,14.94,0,0,1-3.71,3.56,39.16,39.16,0,0,1-5.07,2.19c-3.37,1.3-6.86,2.65-8,3.94-2.13,2.5-1.55,4-1,5.46a4.53,4.53,0,0,1,.29,3.5l-.39,1.16c-3,8.91-3,8.91-10,10.93-1.35.39-3,.87-5,1.51-5.75,1.83-8.11,4.65-10.39,7.38a20,20,0,0,1-6.54,5.68h-.28c-3.6,0-30.9,1.8-33,8.51-.57,1.81.66,3.78,3.65,5.84a14,14,0,0,0,8.38,2.89c.88,0,1.67-.08,2.44-.15a16.62,16.62,0,0,1,1.87-.13c2.2,0,4.42.63,7.47,8.13.75,1.85,1.33,3.37,1.81,4.62,2.36,6.18,2.43,6.26,8.43,8.82,1.49.64,3.34,1.43,5.69,2.51,7.72,3.56,9.3,7.61,11.3,12.73a45.79,45.79,0,0,0,4.53,9.21,66.22,66.22,0,0,0,8,9.53c4.89,5.09,9.51,9.9,11,17.93,2.55,13.91-5,27.19-13.54,39.47-4.14,5.95-12.65,12.89-21.66,20.23-15.24,12.45-32.58,26.57-32.64,39.66,0,7.47,1.88,13.2,5.7,17,4.16,4.18,10.48,6.22,19.33,6.22,12.82,0,28.59-4.33,42.5-8.15,11-3,20.4-5.59,26.45-5.59a12.1,12.1,0,0,1,3.44.41c5.83,1.73,10.46,5.43,14.93,9,5.93,4.75,11.54,9.23,19.55,9.23A20.91,20.91,0,0,0,201.61,363.72ZM164.83,345a12.79,12.79,0,0,0-3.64-.44c-6.14,0-15.64,2.6-26.64,5.62-13.87,3.8-29.58,8.11-42.31,8.12-8.65,0-14.81-2-18.84-6-3.68-3.7-5.53-9.26-5.49-16.54.1-12.76,17.26-26.83,32.44-39.19,9-7.37,17.59-14.33,21.79-20.37,8.62-12.41,16.24-25.84,13.65-40-1.51-8.23-6.2-13.11-11.16-18.28a67.28,67.28,0,0,1-8-9.43,45.9,45.9,0,0,1-4.46-9.09c-2.06-5.26-3.68-9.42-11.66-13.1-2.36-1.09-4.21-1.88-5.7-2.52-5.78-2.47-5.78-2.47-8.06-8.43-.48-1.26-1.06-2.77-1.81-4.63-2.91-7.16-5.18-8.57-8.12-8.57a17.88,17.88,0,0,0-1.94.13c-.75.07-1.53.15-2.37.15a13.25,13.25,0,0,1-8-2.76c-2.7-1.88-3.84-3.58-3.38-5.06,1.83-5.83,27.27-8,32.33-8h.25l.08-.32.15.3a20.46,20.46,0,0,0,6.87-5.91c2.32-2.78,4.51-5.39,10.07-7.17,2-.63,3.66-1.11,5-1.5,7.27-2.1,7.36-2.21,10.48-11.38l.4-1.16a5.16,5.16,0,0,0-.31-4c-.53-1.38-1-2.57.86-4.75,1-1.16,4.55-2.54,7.69-3.75a39.62,39.62,0,0,0,5.19-2.24,15.8,15.8,0,0,0,3.92-3.73c1.42-1.73,2.76-3.35,5.17-4.22a18,18,0,0,1,6-.88c5.93,0,12.89,1.85,18.49,3.34,1.28.34,2.48.66,3.57.93,18.18,4.5,35.48,12.68,52.21,20.6l1.72.81c39.75,18.8,69.8,39.81,91.85,64.23,14.8,16.41,24.36,32.38,29.21,48.84,5.7,19.34,1.6,42.91-10.18,58.68-6.12,8.18-17,17.93-34,17.93a48.83,48.83,0,0,1-13.64-2C254,297.56,255.32,257.59,259.75,221c1.33-10.92-.72-19.8-5.93-25.67-4.4-5-11-7.71-18.73-7.71-14.12,0-32.14,9.71-37.72,27.71-6.4,20.63,7.25,38.22,20.46,55.22,14.07,18.13,28.62,36.88,20.49,60-4.68,13.34-22.14,30.78-36.79,32.45a21.68,21.68,0,0,1-2.42.14c-7.77,0-13.28-4.41-19.11-9.08C175.47,350.47,170.79,346.73,164.83,345Z"/><path class="cls-1" d="M218.83,36.41a50.08,50.08,0,0,0,10.47-1.57c1.69-.37,3.29-.73,4.58-.9,2.41-.33,4.76-.46,7-.6,4.72-.27,9.19-.52,12.74-2.54,2.86-1.63,4.94-4.31,6.37-8.19A142.83,142.83,0,0,1,270.26,0h-.34a143.53,143.53,0,0,0-10.17,22.5c-1.41,3.81-3.45,6.44-6.24,8-3.48,2-7.92,2.23-12.61,2.5-2.28.14-4.63.27-7.06.6-1.3.17-2.91.53-4.61.91a50.75,50.75,0,0,1-10.4,1.56c-3.31,0-5.65-.8-7.16-2.46-3.68-4-1.84-13.23-.85-18.17l.16-.79A43.8,43.8,0,0,1,216.45,0h-.35a44.33,44.33,0,0,0-5.42,14.63l-.15.78c-1,5-2.86,14.29.92,18.43C213,35.57,215.43,36.41,218.83,36.41Z"/><path class="cls-1" d="M296.24,0h-.69a41.34,41.34,0,0,0-3.11,3.63c-11,15-15.92,28.83-14.95,42.31.37,5.24-.27,8.71-2,10.61a6,6,0,0,1-4.72,1.79c-2.91,0-6.5-1.11-10.29-2.28a57,57,0,0,0-10.38-2.54,71.4,71.4,0,0,0-7.74-.41c-8.48,0-16.53,1.35-25,2.78l-4.32.72h-.11a60.41,60.41,0,0,1-9.68,1c-6.24.05-10.24-2-12.24-6.28-4.12-8.89-3-19.59-1.95-29,.13-1.27.27-2.53.39-3.77A88.88,88.88,0,0,1,193.09,0h-.53A90.79,90.79,0,0,0,189,18.48c-.12,1.24-.25,2.5-.39,3.77-1,9.51-2.19,20.29,2,29.31,2.07,4.45,6.21,6.61,12.66,6.61a61.52,61.52,0,0,0,9.76-1h.11l4.32-.72c8.5-1.42,16.54-2.77,25-2.77a70.48,70.48,0,0,1,7.69.41,56.73,56.73,0,0,1,10.28,2.52c3.83,1.18,7.45,2.3,10.44,2.3a6.41,6.41,0,0,0,5.09-2c1.8-2,2.48-5.59,2.09-11-1-13.35,3.91-27.08,14.86-42A42.7,42.7,0,0,1,296.24,0Z"/><path class="cls-1" d="M293,75.81c-3.39,2.4-8,3.56-14.19,3.56-7.24,0-15.33-1.62-22.47-3-4.2-.84-8.18-1.64-11.42-2a108.67,108.67,0,0,0-11.12-.57c-9.74,0-22.24,1.32-26.43,7.61-1.83,2.74-1.9,6.17-.23,10.22.79,1.89,2.83,2.93,4.8,3.92A11.39,11.39,0,0,1,216,98.34a19.18,19.18,0,0,1,2.29,5.42c.8,2.61,1.64,5.3,3.53,6.89a12,12,0,0,0,8.11,2.89,34.63,34.63,0,0,0,6.65-.88,34.38,34.38,0,0,1,6.55-.87,11.54,11.54,0,0,1,5.5,1.26c4,2,5.65,4.8,7.27,7.47,2.11,3.48,4.1,6.76,10.66,8.3,13.74,3.21,17.5,6.57,26.59,14.68,1.17,1,2.43,2.17,3.81,3.38a55.56,55.56,0,0,1,8,9.32,63.52,63.52,0,0,0,7,8.43,31.14,31.14,0,0,0,9.74,6.16c4.14,1.89,8.05,3.67,11.6,9.76l.56,1c4.47,7.72,9,14.87,11.76,14.87a1.46,1.46,0,0,0,1.14-.52c1-1.09,1.27-4,.83-8.9-.26-2.86-2.33-5.43-4.34-7.91-2.16-2.67-4.2-5.19-4.08-8,.15-3.35,2.17-5,4.31-6.73a13.47,13.47,0,0,0,4.14-4.64c2.28-4.91,2.83-9.3,3.37-13.55.74-5.92,1.44-11.5,6.73-17.82a76.77,76.77,0,0,1,37.43-24.06,49.61,49.61,0,0,1,13.85-2.1c15,0,25.72,8.15,37.1,16.77l3.9,2.94V121c-1.17-.87-2.33-1.75-3.48-2.62-11.47-8.7-22.31-16.91-37.52-16.91a50.3,50.3,0,0,0-14,2.11,77.39,77.39,0,0,0-37.76,24.28c-5.43,6.47-6.14,12.16-6.9,18.18-.53,4.2-1.07,8.54-3.3,13.34a12.9,12.9,0,0,1-3.95,4.39c-2.16,1.77-4.41,3.59-4.57,7.25-.13,3.05,2.09,5.8,4.24,8.45,1.94,2.4,3.94,4.88,4.18,7.54.52,5.75-.06,7.72-.64,8.36a.85.85,0,0,1-.63.29c-2.76,0-8.64-10.17-11.16-14.52l-.55-1c-3.66-6.29-7.68-8.11-11.92-10.05a30.7,30.7,0,0,1-9.55-6,63.57,63.57,0,0,1-6.94-8.34,56.23,56.23,0,0,0-8.12-9.44c-1.38-1.2-2.64-2.33-3.81-3.37-9.19-8.2-13-11.59-26.9-14.84-6.28-1.47-8.19-4.64-10.22-8-1.67-2.75-3.39-5.6-7.55-7.74a12.37,12.37,0,0,0-5.82-1.33,35.14,35.14,0,0,0-6.69.88,34.08,34.08,0,0,1-6.51.87,11.32,11.32,0,0,1-7.66-2.73c-1.73-1.46-2.54-4-3.31-6.55a19.06,19.06,0,0,0-2.4-5.63,11.69,11.69,0,0,0-4.31-3c-2-1-3.78-1.91-4.47-3.57q-2.37-5.73.16-9.56c4-6,16.28-7.3,25.85-7.3a109.2,109.2,0,0,1,11,.56c3.22.35,7.18,1.14,11.37,2,7.17,1.43,15.29,3.06,22.6,3.06,6.3,0,11.08-1.2,14.59-3.69,8.75-6.18,6.24-15.51,3.82-24.54-2.6-9.64-5.28-19.61,5.5-26.11a9.84,9.84,0,0,1,5.13-1.18c6.45,0,15.53,3.53,24.31,6.94,7.65,3,14.87,5.77,19.57,5.88h2c10.1,0,20.31-1.74,30.18-3.43s20.05-3.42,30.12-3.42a70.08,70.08,0,0,1,19.43,2.56A128.89,128.89,0,0,1,450,39.21v-.77a128.23,128.23,0,0,0-16.33-6,70.7,70.7,0,0,0-19.62-2.59c-10.13,0-20.35,1.75-30.23,3.43s-20,3.42-30.07,3.42h-2c-4.58-.11-11.75-2.89-19.33-5.84-8.85-3.43-18-7-24.57-7a10.42,10.42,0,0,0-5.49,1.28c-11.23,6.78-8.48,17-5.82,26.89C299,61.22,301.34,69.91,293,75.81Z"/><path class="cls-1" d="M207.94,50.27a50.27,50.27,0,0,0,8.3-.88,172.5,172.5,0,0,1,29.15-2.29c2.65,0,5.37,0,8.33.13,1,0,1.92.05,2.73.05,4.89,0,7.74-.59,9.84-2,2.52-1.74,4-4.79,5-10.19,2.26-12.4,7.24-23.54,15.64-35h-.37C278.2,11.48,273.24,22.61,271,35c-1,5.31-2.43,8.3-4.87,10-2.05,1.41-4.85,2-9.67,2h-2.72c-3-.09-5.69-.13-8.34-.13a173.09,173.09,0,0,0-29.2,2.3,49.66,49.66,0,0,1-8.25.87c-6,0-10.35-2-11.86-11.87-1.44-9.43-.16-19.41,1.16-26.12a65.28,65.28,0,0,1,3.53-12h-.32A64.17,64.17,0,0,0,197,12c-1.33,6.73-2.61,16.74-1.17,26.21C197.1,46.76,200.62,50.27,207.94,50.27Z"/><path class="cls-1" d="M212.06,42.76h0a18.8,18.8,0,0,0,3-.27,180.13,180.13,0,0,1,25.29-2.33c2,0,4,0,5.92.05,1.27,0,2.47.06,3.64.06,3.59,0,7.32-.28,10.19-2.29,2.39-1.68,4.08-4.45,5.19-8.48A102.75,102.75,0,0,1,278.43,0h-.36A103,103,0,0,0,265,29.42c-1.09,4-2.75,6.68-5.07,8.31-2.81,2-6.48,2.24-10,2.24-1.17,0-2.36,0-3.63-.06-1.89,0-3.87-.1-5.94,0A179.57,179.57,0,0,0,215,42.19c-4.57.77-8-.15-10.09-2.73-4.83-5.87-2.23-19-.83-26.12A54.55,54.55,0,0,1,208.47,0h-.34a55.23,55.23,0,0,0-4.31,13.27c-1.41,7.13-4,20.39.89,26.37A9,9,0,0,0,212.06,42.76Z"/></g></g></g></svg>