<svg xmlns="http://www.w3.org/2000/svg"
     viewBox="0 0 420.8 1188.16">
    <defs>
        <style>.cls-1,.cls-2{fill:none;stroke:#f90;stroke-miterlimit:10;}.cls-2{stroke-dasharray:11.97 11.97;}.cls-3{fill:#f90;}</style>
    </defs>
    <title>arrowMidRight</title>
    <g id="Ebene_2"
       data-name="Ebene 2">
        <g id="Ebene_1-2"
           data-name="Ebene 1">
            <path class="cls-1"
                  d="M321.11,14.32c.76,1.86,1.5,3.72,2.24,5.57" />
            <path class="cls-2"
                  d="M327.66,31.06c33.37,89.19,37.79,164.69,36.9,211.1-1.39,72.68-3.86,201.2-96,278-13.91,11.58-88.91,74.09-170,47-44.91-15-100.11-60.3-98-124,2.06-62.36,57.81-105.28,106-117,81.39-19.82,146.08,48.17,156,59,60.87,66.41,57.6,160.18,57,195-2.08,120.12,14.5,297.5,82.24,572.95" />
            <path class="cls-1"
                  d="M403.23,1158.92l1.44,5.82" />
            <path class="cls-3"
                  d="M307.44,20.81a15,15,0,1,1,19.66,8.12A15,15,0,0,1,307.44,20.81Z" />
            <path class="cls-3"
                  d="M410.56,1188.16c-6.82-10-17.19-22-26.69-28.62l20.12,2.11,16.81-11.25C415.5,1160.71,411.91,1176.12,410.56,1188.16Z" />
        </g>
    </g>
</svg>