<?xml version="1.0" encoding="utf-8"?>
<!-- Generator: Adobe Illustrator 23.0.5, SVG Export Plug-In . SVG Version: 6.00 Build 0)  -->
<svg version="1.1" id="Ebene_1" xmlns="http://www.w3.org/2000/svg" xmlns:xlink="http://www.w3.org/1999/xlink" x="0px" y="0px"
	 viewBox="0 0 966.4 375.8" style="enable-background:new 0 0 966.4 375.8;" xml:space="preserve">
<title>Logo</title>
<g>
	<g id="Ebene_1-2">
		<path d="M247,68c12.2-0.1,24.2,3.5,34.4,10.1c10.5,6.8,19,16.4,24.6,27.6c6,11.9,9.1,25,9,38.3c0.1,13.3-3,26.5-9,38.4
			c-5.6,11.3-14.1,20.8-24.6,27.7c-10.2,6.7-22.2,10.3-34.4,10.2c-8.9,0.1-17.8-1.9-25.9-5.6c-8-3.7-13.8-8.6-17.4-14.6v17.3h-42.1
			V8.6h42.1v79.7c3.6-6,9.4-10.9,17.4-14.6C229.2,69.9,238.1,67.9,247,68z M237.8,180.4c10.2,0,18.7-3.5,25.6-10.4
			c6.9-6.9,10.3-15.6,10.3-26c0-10.4-3.4-19.1-10.3-26c-6.9-6.9-15.4-10.4-25.6-10.4c-7-0.1-14,1.7-20.1,5.2
			c-5.8,3.2-10.6,7.9-14,13.6v35.8c3.4,5.5,8.3,10.1,14.1,13.1C223.9,178.7,230.8,180.5,237.8,180.4L237.8,180.4z"/>
		<path d="M495.6,68c17.6,0,31.9,5.4,43.1,16.1s16.8,24.8,16.8,42.3v91h-42.4v-82.3c0-8.7-2.3-15.7-6.9-20.8
			c-4.6-5.1-10.7-7.6-18.5-7.6c-5.3,0-10.5,1.6-15,4.4c-4.6,2.7-8.5,6.5-11.2,11.1v95.1h-42.1v-82.3c0-8.7-2.3-15.6-6.9-20.7
			c-4.4-5-10.8-7.9-17.5-7.7c-5.7-0.1-11.3,1.5-16.2,4.5c-4.6,2.9-8.3,7-10.6,11.9l0,94.2h-42V70.9h42.1v16.8
			c3.9-5.5,9.4-10.2,16.6-14S400.4,68,410,68c18.8,0,32.4,6.8,40.8,20.5c5.4-6.1,11.9-11,19.2-14.5C477.9,70,486.7,68,495.6,68z"/>
		<path d="M739,68c17.6,0,32,5.4,43.1,16.1c11.2,10.7,16.7,24.8,16.7,42.3v91h-42.3v-82.3c0-8.7-2.3-15.7-6.8-20.8
			c-4.6-5.1-10.7-7.6-18.5-7.6c-5.3,0-10.5,1.6-15,4.4c-4.6,2.7-8.4,6.6-11.2,11.1v95.1h-42.1v-82.3c0-8.7-2.3-15.6-6.9-20.7
			c-4.4-5-10.8-7.9-17.5-7.7c-5.7-0.1-11.3,1.5-16.2,4.5c-4.6,2.9-8.3,7-10.6,11.9v94.2h-42.1V70.9h42.1v16.8
			c3.9-5.5,9.4-10.2,16.6-14s15.6-5.7,25.2-5.7c18.8,0,32.4,6.8,40.8,20.5c5.4-6.1,11.9-11.1,19.2-14.5C721.4,70,730.1,68,739,68z"
			/>
		<path d="M924.3,70.9h42.1v146.5h-42.1v-17.3c-3.6,6-9.4,10.9-17.4,14.6c-8.1,3.8-16.9,5.7-25.9,5.6c-12.3,0.1-24.3-3.5-34.5-10.2
			c-10.6-6.9-19.1-16.5-24.8-27.7c-6.1-11.9-9.1-25-9-38.4c0-21.2,6.6-39.1,19.9-53.9C845.9,75.4,862,68,881,68
			c8.9,0,17.7,1.9,25.8,5.7c8.1,3.8,13.9,8.7,17.5,14.6L924.3,70.9z M890.3,180.4c7,0,13.8-1.7,19.9-5.1c5.8-3,10.6-7.6,14-13.1
			v-35.8c-3.4-5.7-8.2-10.4-14-13.6c-6.1-3.5-12.9-5.3-19.9-5.2c-10.3,0-18.9,3.5-25.9,10.4c-7,6.9-10.5,15.6-10.5,26
			c0,10.4,3.5,19.1,10.5,26C871.4,177,880,180.4,890.3,180.4z"/>
		<path d="M347,51c6.8,0.1,13.3-2.7,18.1-7.6c4.9-4.7,7.6-11.3,7.6-18.1c0.1-6.7-2.7-13.2-7.6-17.9c-9.9-10-26.1-10-36-0.1
			c0,0,0,0-0.1,0.1c-4.9,4.6-7.6,11.1-7.6,17.8c-0.1,6.8,2.7,13.3,7.6,18.1C333.7,48.3,340.2,51.1,347,51z"/>
		<path d="M326.1,216.3v1.4l0,0c0.1,31.2-12.5,61.1-34.8,82.9c-22.3,21.9-51.4,33.7-81.8,33.1C148,332.6,98,281.6,97.2,219.7
			c6.2-1.6,12.1-4,17.7-7.2c11.5-6.4,20.9-15.9,27.4-27.3c6.7-11.8,10.2-25.3,10-38.9c0.1-10.4-1.9-20.6-5.9-30.2
			c-3.7-9.1-9.1-17.4-16-24.3c-6.9-6.9-15.2-12.3-24.2-15.9c-9.5-3.9-19.7-5.9-29.9-5.8c-21.6,0-39.8,7.3-54.3,21.9S0,124.6,0,146.3
			c0,21.8,7.3,39.9,21.9,54.3c9.2,9.2,20.6,15.9,33.2,19.1c0.9,84.7,69.3,154.4,153.6,156c1,0,2,0,3,0c40.8,0,79.5-16,109.2-45.2
			c30.4-29.6,47.5-70.3,47.4-112.7l0,0v-147h-42.1L326.1,216.3z M41.2,146.3c0-10.4,3.3-19,10-25.8c6.7-6.8,15-10.3,25-10.3
			c9.9,0,18.2,3.4,24.8,10.3c6.7,6.8,10,15.5,10,25.9c0,10.1-3.3,18.6-10,25.5c-6.4,6.8-15.4,10.5-24.8,10.3c-10,0-18.3-3.4-25-10.3
			S41.3,156.4,41.2,146.3z"/>
	</g>
</g>
</svg>
