<svg xmlns="http://www.w3.org/2000/svg" viewBox="0 0 966.4 375.81"><defs><style>.cls-1{fill:#fff;}</style></defs><title>LogoWhite</title><g id="Ebene_2" data-name="Ebene 2"><g id="Ebene_1-2" data-name="Ebene 1"><g id="Ebene_1-2-2" data-name="Ebene 1-2"><path class="cls-1" d="M247,68.11a62.59,62.59,0,0,1,34.4,10.1,70.42,70.42,0,0,1,24.6,27.6,86.21,86.21,0,0,1,0,76.7,70.7,70.7,0,0,1-24.6,27.7,61.87,61.87,0,0,1-34.4,10.2,61,61,0,0,1-25.9-5.6c-8-3.7-13.8-8.6-17.4-14.6v17.3H161.6V8.71h42.1v79.7c3.6-6,9.4-10.9,17.4-14.6A59.64,59.64,0,0,1,247,68.11Zm-9.2,112.4a34.76,34.76,0,0,0,25.6-10.4c6.9-6.9,10.3-15.6,10.3-26s-3.4-19.1-10.3-26a34.76,34.76,0,0,0-25.6-10.4,39.42,39.42,0,0,0-20.1,5.2,37.29,37.29,0,0,0-14,13.6v35.8a36.28,36.28,0,0,0,14.1,13.1,40,40,0,0,0,20,5.1Z"/><path class="cls-1" d="M495.6,68.11c17.6,0,31.9,5.4,43.1,16.1s16.8,24.8,16.8,42.3v91H513.1v-82.3c0-8.7-2.3-15.7-6.9-20.8s-10.7-7.6-18.5-7.6a28.52,28.52,0,0,0-15,4.4,31.35,31.35,0,0,0-11.2,11.1v95.1H419.4v-82.3q0-13.05-6.9-20.7a22.5,22.5,0,0,0-17.5-7.7,30,30,0,0,0-16.2,4.5,28.35,28.35,0,0,0-10.6,11.9v94.2h-42V71h42.1v16.8a46.4,46.4,0,0,1,16.6-14c7.2-3.8,15.5-5.7,25.1-5.7q28.2,0,40.8,20.5A60.53,60.53,0,0,1,470,74.11,56.67,56.67,0,0,1,495.6,68.11Z"/><path class="cls-1" d="M739,68.11c17.6,0,32,5.4,43.1,16.1s16.7,24.8,16.7,42.3v91H756.5v-82.3c0-8.7-2.3-15.7-6.8-20.8s-10.7-7.6-18.5-7.6a28.52,28.52,0,0,0-15,4.4,33,33,0,0,0-11.2,11.1v95.1H662.9v-82.3q0-13.05-6.9-20.7a22.5,22.5,0,0,0-17.5-7.7,30,30,0,0,0-16.2,4.5,28.35,28.35,0,0,0-10.6,11.9v94.2H569.6V71h42.1v16.8a46.4,46.4,0,0,1,16.6-14q10.8-5.7,25.2-5.7,28.2,0,40.8,20.5a59.1,59.1,0,0,1,19.2-14.5A56.26,56.26,0,0,1,739,68.11Z"/><path class="cls-1" d="M924.3,71h42.1v146.5H924.3v-17.3c-3.6,6-9.4,10.9-17.4,14.6a59.23,59.23,0,0,1-25.9,5.6,62,62,0,0,1-34.5-10.2,71.91,71.91,0,0,1-24.8-27.7,82.49,82.49,0,0,1-9-38.4c0-21.2,6.6-39.1,19.9-53.9S862,68.11,881,68.11a60.66,60.66,0,0,1,25.8,5.7c8.1,3.8,13.9,8.7,17.5,14.6Zm-34,109.5a40.66,40.66,0,0,0,19.9-5.1,36,36,0,0,0,14-13.1v-35.8a37.29,37.29,0,0,0-14-13.6,38.7,38.7,0,0,0-19.9-5.2,35.44,35.44,0,0,0-25.9,10.4c-7,6.9-10.5,15.6-10.5,26s3.5,19.1,10.5,26S880,180.51,890.3,180.51Z"/><path class="cls-1" d="M347,51.11a24.87,24.87,0,0,0,18.1-7.6,25.1,25.1,0,0,0,7.6-18.1,24.42,24.42,0,0,0-7.6-17.9,25.44,25.44,0,0,0-36-.1l-.1.1a24.42,24.42,0,0,0-7.6,17.8,24.87,24.87,0,0,0,7.6,18.1A24.2,24.2,0,0,0,347,51.11Z"/><path class="cls-1" d="M326.1,216.41v1.4h0a115.47,115.47,0,0,1-34.8,82.9c-22.3,21.9-51.4,33.7-81.8,33.1-61.5-1.1-111.5-52.1-112.3-114a73.39,73.39,0,0,0,45.1-34.5,76.75,76.75,0,0,0,10-38.9,76.34,76.34,0,0,0-5.9-30.2,73.4,73.4,0,0,0-16-24.3A72.19,72.19,0,0,0,106.2,76a76.92,76.92,0,0,0-29.9-5.8c-21.6,0-39.8,7.3-54.3,21.9s-22,32.6-22,54.3,7.3,39.9,21.9,54.3a72.2,72.2,0,0,0,33.2,19.1c.9,84.7,69.3,154.4,153.6,156h3c40.8,0,79.5-16,109.2-45.2a156.84,156.84,0,0,0,47.4-112.7h0v-147H326.2Zm-284.9-70c0-10.4,3.3-19,10-25.8a33.71,33.71,0,0,1,25-10.3c9.9,0,18.2,3.4,24.8,10.3s10,15.5,10,25.9c0,10.1-3.3,18.6-10,25.5a33,33,0,0,1-24.8,10.3c-10,0-18.3-3.4-25-10.3S41.3,156.51,41.2,146.41Z"/></g></g></g></svg>