<?xml version="1.0" encoding="utf-8"?>
<!-- Generator: Adobe Illustrator 23.0.5, SVG Export Plug-In . SVG Version: 6.00 Build 0)  -->
<svg version="1.1" id="Ebene_1" xmlns="http://www.w3.org/2000/svg" xmlns:xlink="http://www.w3.org/1999/xlink" x="0px" y="0px"
	 viewBox="0 0 966.4 375.8" style="enable-background:new 0 0 966.4 375.8;" xml:space="preserve">
<style type="text/css">
	.st0{fill:#FFFFFF;}
</style>
<title>Logo</title>
<g>
	<rect x="77.8" y="589.3" class="st0" width="100" height="100"/>
	<g>
		<path d="M156.8,614.7c1.2,0,2.4-0.5,3.3-1.4c0.9-0.8,1.4-2,1.4-3.3c0-1.2-0.5-2.4-1.4-3.2c-1.8-1.8-4.7-1.8-6.5,0c0,0,0,0,0,0
			c-0.9,0.8-1.4,2-1.4,3.2c0,1.2,0.5,2.4,1.4,3.3C154.4,614.2,155.5,614.7,156.8,614.7z"/>
		<path d="M153,644.4v0.3l0,0c0,5.6-2.2,11-6.3,14.9c-4,3.9-9.2,6.1-14.7,6c-11.1-0.2-20.1-9.4-20.2-20.5c1.1-0.3,2.2-0.7,3.2-1.3
			c2.1-1.2,3.8-2.9,4.9-4.9c1.2-2.1,1.8-4.5,1.8-7c0-1.9-0.4-3.7-1.1-5.4c-0.7-1.6-1.6-3.1-2.9-4.4c-1.2-1.2-2.7-2.2-4.4-2.9
			c-1.7-0.7-3.5-1.1-5.4-1.1c-3.9,0-7.2,1.3-9.8,3.9s-3.9,5.9-3.9,9.8c0,3.9,1.3,7.2,3.9,9.8c1.6,1.7,3.7,2.9,6,3.4
			c0.2,15.2,12.5,27.8,27.6,28.1c0.2,0,0.4,0,0.5,0c7.3,0,14.3-2.9,19.7-8.1c5.5-5.3,8.6-12.7,8.5-20.3l0,0v-26.5H153L153,644.4z
			 M101.7,631.8c0-1.9,0.6-3.4,1.8-4.7c1.2-1.2,2.7-1.8,4.5-1.8c1.8,0,3.3,0.6,4.5,1.8c1.2,1.2,1.8,2.8,1.8,4.7
			c0,1.8-0.6,3.3-1.8,4.6c-1.2,1.2-2.8,1.9-4.5,1.9c-1.8,0-3.3-0.6-4.5-1.9C102.3,635.2,101.7,633.7,101.7,631.8z"/>
	</g>
</g>
</svg>
